FiraMath-Bold.sfdir
StartChar: uni0022
Encoding: 34 34 2
Width: 439
Flags: W
HStem: 414 279<67 67 67 171 268 373 268 268>
VStem: 57.5 123.5 258.5 124
LayerCount: 2
Fore
SplineSet
67 414 m 1
 48 693 l 1
 191 693 l 1
 171 414 l 1
 67 414 l 1
268 414 m 1
 249 693 l 1
 392 693 l 1
 373 414 l 1
 268 414 l 1
EndSplineSet
EndChar
StartChar: uni002A
Encoding: 42 42 10
Width: 449
Flags: W
HStem: 515 20G<8 8 441 441> 722 20G<157 293 293 293>
VStem: 8 433<535 535>
LayerCount: 2
Fore
SplineSet
441 535 m 1
 300 512 l 1
 401 410 l 1
 291 330 l 1
 225 457 l 1
 159 329 l 1
 49 409 l 1
 149 511 l 1
 8 535 l 1
 49 661 l 1
 177 599 l 1
 157 742 l 1
 293 742 l 1
 272 598 l 1
 399 662 l 1
 441 535 l 1
EndSplineSet
EndChar
StartChar: uni003B
Encoding: 59 59 27
Width: 240
Flags: W
HStem: -1 21G<69 69> 329 180<94.5 145>
VStem: 29 181<58.5 99.5 394.5 443.5>
LayerCount: 2
Fore
SplineSet
120 509 m 0
 170 509 210 468 210 419 c 0
 210 370 170 329 120 329 c 0
 69 329 29 370 29 419 c 0
 29 468 69 509 120 509 c 0
120 164 m 0
 171 164 210 125 210 74 c 0
 210 43 200 17 178 -32 c 2
 115 -177 l 1
 26 -177 l 1
 69 -1 l 1
 44 16 29 43 29 74 c 0
 29 125 68 164 120 164 c 0
EndSplineSet
EndChar
StartChar: uni003E
Encoding: 62 62 30
Width: 519
Flags: W
HStem: 556 20G<84 84>
VStem: 34 450<205 402 263 465>
LayerCount: 2
Fore
SplineSet
84 576 m 1
 484 402 l 1
 484 263 l 1
 84 90 l 1
 34 205 l 1
 350 333 l 1
 34 465 l 1
 84 576 l 1
EndSplineSet
EndChar
StartChar: uni0040
Encoding: 64 64 32
Width: 1020
Flags: W
HStem: -222 117<417 561.5 417 568> 4 98<730 771 730 820> 8 99<477 513> 403 100<496 530.5> 595 115<418.5 630>
VStem: 48 143<135.5 346 135.5 378> 294 143<186 296.5 186 315> 566 134<169.5 211 211 394 394 394> 830 142<233 401>
LayerCount: 2
Fore
SplineSet
527 503 m 0xdf80
 582 503 646 488 700 458 c 1
 700 211 l 2
 700 128 713 102 747 102 c 0
 795 102 830 152 830 314 c 0
 830 488 734 595 526 595 c 0
 311 595 191 450 191 242 c 0
 191 29 307 -105 527 -105 c 0
 596 -105 672 -90 724 -71 c 1
 761 -180 l 1
 698 -204 610 -222 526 -222 c 0
 236 -222 48 -41 48 242 c 0
 48 514 248 710 527 710 c 0
 811 710 972 521 972 316 c 0
 972 135 886 4 754 4 c 0xdf80
 674 4 631 57 620 106 c 1
 596 50 549 8 477 8 c 0xbf80
 350 8 294 104 294 233 c 0
 294 397 379 503 527 503 c 0xdf80
498 107 m 0xbf80
 533 107 555 132 566 156 c 1
 566 394 l 1
 551 400 539 403 522 403 c 0
 470 403 437 361 437 232 c 0
 437 140 456 107 498 107 c 0xbf80
EndSplineSet
EndChar
StartChar: uni005B
Encoding: 91 91 59
Width: 324
Flags: W
HStem: -123 117<184 299 184 299> 705 118<184 299 184 184>
VStem: 34 150<-6 705 -6 823 -6 823>
LayerCount: 2
Fore
SplineSet
299 823 m 1
 299 705 l 1
 184 705 l 1
 184 -6 l 1
 299 -6 l 1
 299 -123 l 1
 34 -123 l 1
 34 823 l 1
 299 823 l 1
EndSplineSet
EndChar
StartChar: uni005E
Encoding: 94 94 62
Width: 559
Flags: W
HStem: 527 317<18 351 18 351 207 540 207 386>
VStem: 18 522<527 527>
LayerCount: 2
Fore
SplineSet
351 844 m 1
 540 527 l 1
 386 527 l 1
 278 726 l 1
 175 527 l 1
 18 527 l 1
 207 844 l 1
 351 844 l 1
EndSplineSet
EndChar
StartChar: uni0060
Encoding: 96 96 64
Width: 340
Flags: W
HStem: 683 20G<310 310>
VStem: 30 280<703 717>
LayerCount: 2
Fore
SplineSet
92 835 m 1
 310 703 l 1
 266 622 l 1
 30 717 l 1
 92 835 l 1
EndSplineSet
EndChar
StartChar: uni0062
Encoding: 98 98 66
Width: 591
Flags: W
HStem: -17 115<318.5 329.5 285 414> 0 98<61 329.5> 432 116<332.5 334> 722 20G<61 61> 739 20G<219 219>
VStem: 61 158<149 370 477 742 742 742> 395 164<203 332.5>
LayerCount: 2
Fore
SplineSet
362 548 m 0xae
 489 548 559 443 559 265 c 0
 559 101 480 -17 348 -17 c 0
 289 -17 241 9 209 51 c 1xae
 201 0 l 1
 61 0 l 1
 61 742 l 1x76
 219 759 l 1
 219 477 l 1
 251 521 303 548 362 548 c 0xae
302 98 m 0
 357 98 395 141 395 265 c 0
 395 400 359 432 309 432 c 0
 273 432 242 409 219 370 c 1
 219 149 l 1
 239 117 268 98 302 98 c 0
EndSplineSet
EndChar
StartChar: uni006C
Encoding: 108 108 76
Width: 300
Flags: W
HStem: -17 21G<154 219.5> -17 125<154 245> 722 20G<54 54> 739 20G<212 212>
VStem: 54 158<135 141 141 742 742 742>
LayerCount: 2
Fore
SplineSet
200 -17 m 0x98
 108 -17 54 38 54 135 c 2
 54 742 l 1xa8
 212 759 l 1
 212 141 l 2
 212 119 221 108 240 108 c 0
 250 108 259 110 266 113 c 1x58
 296 1 l 1
 273 -9 239 -17 200 -17 c 0x98
EndSplineSet
EndChar
StartChar: uni0072
Encoding: 114 114 82
Width: 400
Flags: W
HStem: 0 21G<61 219 61 61> 393 153<318.5 337.5> 511 20G<61 198 198 198> 526 20G<318.5 359> 539 7
VStem: 61 158<0 267 0 531>
LayerCount: 2
Fore
SplineSet
349 546 m 0x94
 369 546 384 544 402 539 c 1x8c
 377 386 l 1
 360 390 346 393 329 393 c 0xc4
 264 393 237 346 219 267 c 1
 219 0 l 1
 61 0 l 1
 61 531 l 1
 198 531 l 1xa4
 212 428 l 1
 236 502 288 546 349 546 c 0x94
EndSplineSet
EndChar
StartChar: uni0073
Encoding: 115 115 83
Width: 480
Flags: W
HStem: -17 113<198 248 198 294> 435 113<233.5 278>
VStem: 32 159<381 407 381 431.5> 301 163<130 164>
LayerCount: 2
Fore
SplineSet
249 548 m 0
 326 548 395 523 444 483 c 1
 386 394 l 1
 345 420 301 435 255 435 c 0
 212 435 191 419 191 395 c 0
 191 367 205 355 300 327 c 0
 405 297 464 253 464 158 c 0
 464 48 360 -17 228 -17 c 0
 136 -17 58 15 6 62 c 1
 83 148 l 1
 123 117 172 96 224 96 c 0
 272 96 301 114 301 146 c 0
 301 182 285 193 189 220 c 0
 84 250 32 304 32 386 c 0
 32 477 115 548 249 548 c 0
EndSplineSet
EndChar
StartChar: uni007A
Encoding: 122 122 90
Width: 454
Flags: W
HStem: 0 120<196 427> 412 119<34 254 34 436>
VStem: 13 428<0 120 112 120>
LayerCount: 2
Fore
SplineSet
436 531 m 1
 436 420 l 1
 196 120 l 1
 441 120 l 1
 427 0 l 1
 13 0 l 1
 13 112 l 1
 254 412 l 1
 34 412 l 1
 34 531 l 1
 436 531 l 1
EndSplineSet
EndChar
StartChar: uni00A1
Encoding: 161 161 96
Width: 240
Flags: W
HStem: -210 21G<37 205 37 37> 329 180<95 145.5>
VStem: 30 181<394.5 443.5> 47 147.5
LayerCount: 2
Fore
SplineSet
120 509 m 0xe0
 171 509 211 468 211 419 c 0
 211 370 171 329 120 329 c 0
 70 329 30 370 30 419 c 0
 30 468 70 509 120 509 c 0xe0
184 235 m 1xd0
 205 -210 l 1
 37 -210 l 1
 57 235 l 1
 184 235 l 1xd0
EndSplineSet
EndChar
StartChar: uni00A2
Encoding: 162 162 97
Width: 478
Flags: W
HStem: -13 21G<346 346> -11 21G<232 232> 522 20G<233 233> 524 20G<346 346>
VStem: 32 166<203 321.5 203 334.5> 233 113<544 691>
LayerCount: 2
Fore
SplineSet
405 144 m 1x5c
 474 46 l 1
 437 17 396 -4 346 -13 c 1x9c
 346 -161 l 1
 232 -161 l 1
 232 -11 l 1
 107 14 32 116 32 261 c 0
 32 408 108 516 233 542 c 1x6c
 233 691 l 1
 346 691 l 1
 346 544 l 1
 395 535 436 515 474 483 c 1
 406 389 l 1
 372 415 341 427 305 427 c 0
 237 427 198 381 198 262 c 0
 198 144 240 108 303 108 c 0
 341 108 367 120 405 144 c 1x5c
EndSplineSet
EndChar
StartChar: uni00A6
Encoding: 166 166 101
Width: 376
Flags: W
HStem: -105 915<115 262 115 262>
VStem: 115 147<-105 262 -105 262 443 810>
LayerCount: 2
Fore
SplineSet
262 810 m 1
 262 443 l 1
 115 443 l 1
 115 810 l 1
 262 810 l 1
262 262 m 1
 262 -105 l 1
 115 -105 l 1
 115 262 l 1
 262 262 l 1
EndSplineSet
EndChar
StartChar: uni00A7
Encoding: 167 167 102
Width: 550
Flags: W
HStem: -83 109<220.5 269 220.5 319.5> 580 109<276 323.5>
VStem: 53 138<304 325.5> 78 150<518.5 549 518.5 575.5> 323 151<56 86> 359 138<279 302>
LayerCount: 2
Fore
SplineSet
419 182 m 1xd8
 458 155 474 125 474 76 c 0
 474 -19 387 -83 252 -83 c 0
 174 -83 109 -62 61 -29 c 1
 112 64 l 1
 155 39 197 26 244 26 c 0
 294 26 323 42 323 70 c 0
 323 102 310 116 204 148 c 0
 110 177 53 214 53 298 c 0xe8
 53 353 87 393 133 421 c 1
 94 449 78 483 78 529 c 0
 78 622 161 689 293 689 c 0
 366 689 434 667 486 633 c 1
 433 544 l 1
 390 568 346 580 301 580 c 0
 251 580 228 563 228 535 c 0
 228 502 243 490 344 458 c 0
 439 428 497 390 497 307 c 0xd4
 497 251 463 210 419 182 c 1xd8
268 249 m 0xe4
 292 240 314 232 333 224 c 1
 350 244 359 267 359 285 c 0
 359 319 340 336 261 362 c 2
 212 379 l 1
 197 359 191 338 191 321 c 0
 191 287 207 271 268 249 c 0xe4
EndSplineSet
EndChar
StartChar: uni00AF
Encoding: 175 175 110
Width: 365
Flags: W
HStem: 655 110<30 335 30 335>
VStem: 30 305<655 765 655 765>
LayerCount: 2
Fore
SplineSet
335 655 m 1
 30 655 l 1
 30 765 l 1
 335 765 l 1
 335 655 l 1
EndSplineSet
EndChar
StartChar: uni00B3
Encoding: 179 179 114
Width: 400
Flags: W
HStem: 309 90<166.5 201 166.5 249.5> 501 80<154 178 141 180> 523 20G 665 87<168.5 200>
VStem: 237 115<618.5 637.5> 245 122<432 467.5>
LayerCount: 2
Fore
SplineSet
199 752 m 0xd8
 299 752 352 704 352 642 c 0xd8
 352 595 322 559 259 543 c 1xb4
 321 539 367 507 367 441 c 0
 367 370 307 309 192 309 c 0
 119 309 68 335 33 376 c 1
 98 438 l 1
 124 410 150 399 183 399 c 0
 219 399 245 415 245 449 c 0
 245 486 223 501 178 501 c 2xd4
 141 501 l 1
 154 581 l 1
 180 581 l 2
 217 581 237 596 237 624 c 0
 237 651 216 665 184 665 c 0
 153 665 125 653 100 630 c 1
 41 692 l 1
 83 731 136 752 199 752 c 0xd8
EndSplineSet
EndChar
StartChar: uni00B5
Encoding: 181 181 116
Width: 581
Flags: W
HStem: -220 21G<61 61> -205 21G<210 210> -17 21G<391 391> -8 114<254.5 282> 0 21G<536 536> 511 20G<61 219 219 219 354 512 512 512>
VStem: 61 158<144 167 167 531> 354 158<170 182 182 531>
LayerCount: 2
Fore
SplineSet
536 0 m 1x4f
 391 -17 l 1x67
 378 11 374 33 368 69 c 1
 341 22 304 -8 260 -8 c 0
 223 -8 195 1 171 34 c 1
 194 -8 210 -43 210 -113 c 2
 210 -205 l 1x57
 61 -220 l 1
 61 531 l 1
 219 531 l 1
 219 167 l 2
 219 121 240 106 269 106 c 0
 298 106 329 124 354 170 c 1x97
 354 531 l 1
 512 531 l 1
 512 182 l 2
 512 102 523 42 536 0 c 1x4f
EndSplineSet
EndChar
StartChar: uni00B6
Encoding: 182 182 117
Width: 788
Flags: W
HStem: -222 21G<304 304 534 534> 583 110<442 534 442 442>
VStem: 304 138<-204 263 263 263> 534 138<-204 583 583 583>
LayerCount: 2
Fore
SplineSet
328 693 m 2
 672 693 l 1
 672 -204 l 1
 534 -222 l 1
 534 583 l 1
 442 583 l 1
 442 -204 l 1
 304 -222 l 1
 304 263 l 1
 144 267 65 355 65 478 c 0
 65 612 162 693 328 693 c 2
EndSplineSet
EndChar
StartChar: uni00BB
Encoding: 187 187 122
Width: 625
Flags: W
HStem: 13 543<134 134 134 400>
VStem: 36 553<78 334 234 491>
LayerCount: 2
Fore
SplineSet
134 556 m 1
 323 334 l 1
 323 234 l 1
 134 13 l 1
 36 78 l 1
 165 285 l 1
 36 491 l 1
 134 556 l 1
400 556 m 1
 589 334 l 1
 589 234 l 1
 400 13 l 1
 302 78 l 1
 431 285 l 1
 302 491 l 1
 400 556 l 1
EndSplineSet
EndChar
StartChar: uni00BC
Encoding: 188 188 123
Width: 969
Flags: W
HStem: 0 170<785 787 714 897 785 785> 84 86<714 785 897 943> 673 20G<193 300 300 300> 739 20G<644 644>
VStem: 183 117<272 583 583 583> 785 112<0 84 0 84>
LayerCount: 2
Fore
SplineSet
644 759 m 1xbc
 736 714 l 1
 325 -85 l 1
 233 -40 l 1
 644 759 l 1xbc
300 272 m 1
 183 272 l 1
 183 583 l 1
 92 526 l 1
 39 604 l 1
 193 693 l 1
 300 693 l 1
 300 272 l 1
943 170 m 1
 943 84 l 1
 897 84 l 1x7c
 897 0 l 1
 785 0 l 1xbc
 785 84 l 1
 594 84 l 1
 594 162 l 1x7c
 715 431 l 1
 814 395 l 1
 714 170 l 1
 787 170 l 1
 807 265 l 1
 897 265 l 1
 897 170 l 1
 943 170 l 1
EndSplineSet
EndChar
StartChar: uni00C8
Encoding: 200 200 135
Width: 526
Flags: W
HStem: 0 118<229 490 229 490> 295 115<229 442 229 442> 576 117<229 473 229 229>
VStem: 65 164<118 295 410 576>
LayerCount: 2
Fore
SplineSet
194 956 m 1
 415 831 l 1
 375 751 l 1
 135 838 l 1
 194 956 l 1
490 693 m 1
 473 576 l 1
 229 576 l 1
 229 410 l 1
 442 410 l 1
 442 295 l 1
 229 295 l 1
 229 118 l 1
 490 118 l 1
 490 0 l 1
 65 0 l 1
 65 693 l 1
 490 693 l 1
EndSplineSet
EndChar
StartChar: uni00CB
Encoding: 203 203 138
Width: 526
Flags: W
HStem: 0 118<229 490 229 490> 295 115<229 442 229 442> 576 117<229 473 229 229> 767 158<138.5 184 370 415.5>
VStem: 65 164<118 295 410 576> 80 162<824 868> 312 161<824 868>
LayerCount: 2
Fore
SplineSet
161 925 m 0xf6
 207 925 242 890 242 846 c 0
 242 802 207 767 161 767 c 0
 116 767 80 802 80 846 c 0
 80 890 116 925 161 925 c 0xf6
392 925 m 0
 439 925 473 890 473 846 c 0
 473 802 439 767 392 767 c 0
 348 767 312 802 312 846 c 0
 312 890 348 925 392 925 c 0
490 693 m 1
 473 576 l 1
 229 576 l 1
 229 410 l 1
 442 410 l 1
 442 295 l 1
 229 295 l 1
 229 118 l 1
 490 118 l 1
 490 0 l 1
 65 0 l 1
 65 693 l 1xe8
 490 693 l 1
EndSplineSet
EndChar
StartChar: uni00CD
Encoding: 205 205 140
Width: 293
Flags: W
HStem: 0 21G<65 229 65 65> 673 20G<65 229 229 229>
VStem: 65 164<0 693 0 693>
LayerCount: 2
Fore
SplineSet
227 956 m 1
 286 838 l 1
 46 751 l 1
 6 831 l 1
 227 956 l 1
229 693 m 1
 229 0 l 1
 65 0 l 1
 65 693 l 1
 229 693 l 1
EndSplineSet
EndChar
StartChar: uni00CF
Encoding: 207 207 142
Width: 293
Flags: W
HStem: 0 21G<65 229 65 65> 673 20G<65 229 229 229> 767 158<6.5 52 238 283.5>
VStem: -52 162<824 868> 65 164<0 693 0 693> 180 161<824 868>
LayerCount: 2
Fore
SplineSet
29 925 m 0xf4
 75 925 110 890 110 846 c 0
 110 802 75 767 29 767 c 0
 -16 767 -52 802 -52 846 c 0
 -52 890 -16 925 29 925 c 0xf4
260 925 m 0
 307 925 341 890 341 846 c 0
 341 802 307 767 260 767 c 0
 216 767 180 802 180 846 c 0
 180 890 216 925 260 925 c 0
229 693 m 1xe8
 229 0 l 1
 65 0 l 1
 65 693 l 1
 229 693 l 1xe8
EndSplineSet
EndChar
StartChar: uni00D4
Encoding: 212 212 147
Width: 691
Flags: W
HStem: -17 120<300 392 300 443> 590 120<299 391.5>
VStem: 33 172<259 434.5 259 460> 486 172<259 434.5>
LayerCount: 2
Fore
SplineSet
212 755 m 1
 155 820 l 1
 297 949 l 1
 393 949 l 1
 534 820 l 1
 478 755 l 1
 345 839 l 1
 212 755 l 1
345 710 m 0
 541 710 658 578 658 347 c 0
 658 120 541 -17 345 -17 c 0
 150 -17 33 116 33 347 c 0
 33 573 150 710 345 710 c 0
345 590 m 0
 253 590 205 522 205 347 c 0
 205 171 255 103 345 103 c 0
 439 103 486 171 486 347 c 0
 486 522 438 590 345 590 c 0
EndSplineSet
EndChar
StartChar: uni00D6
Encoding: 214 214 149
Width: 691
Flags: W
HStem: -17 120<300 392 300 443> 590 120<299 391.5> 767 158<205.5 251 437 482.5>
VStem: 33 172<259 434.5 259 460> 147 162<824 868> 379 161<824 868> 486 172<259 434.5>
LayerCount: 2
Fore
SplineSet
228 925 m 0xec
 274 925 309 890 309 846 c 0
 309 802 274 767 228 767 c 0
 183 767 147 802 147 846 c 0
 147 890 183 925 228 925 c 0xec
459 925 m 0
 506 925 540 890 540 846 c 0
 540 802 506 767 459 767 c 0
 415 767 379 802 379 846 c 0
 379 890 415 925 459 925 c 0
345 710 m 0xf2
 541 710 658 578 658 347 c 0
 658 120 541 -17 345 -17 c 0
 150 -17 33 116 33 347 c 0
 33 573 150 710 345 710 c 0xf2
345 590 m 0
 253 590 205 522 205 347 c 0
 205 171 255 103 345 103 c 0
 439 103 486 171 486 347 c 0
 486 522 438 590 345 590 c 0
EndSplineSet
EndChar
StartChar: uni00DD
Encoding: 221 221 156
Width: 594
Flags: W
HStem: 0 21G<215 379 215 215> 673 20G<-7 172 172 172 428 601 601 601>
VStem: 215 164<0 259 259 259>
LayerCount: 2
Fore
SplineSet
378 956 m 1
 437 838 l 1
 197 751 l 1
 157 831 l 1
 378 956 l 1
601 693 m 1
 379 260 l 1
 379 0 l 1
 215 0 l 1
 215 259 l 1
 -7 693 l 1
 172 693 l 1
 300 388 l 1
 428 693 l 1
 601 693 l 1
EndSplineSet
EndChar
StartChar: uni00DF
Encoding: 223 223 158
Width: 605
Flags: W
HStem: -17 122<361.5 383 354 441.5> 0 21G<61 219 61 61> 647 112<268 311.5>
VStem: 61 158<0 533 533 538 0 603> 266 137<393.5 457.5> 354 150<559 608> 424 163<147.5 223.5>
LayerCount: 2
Fore
SplineSet
297 759 m 0x74
 431 759 504 689 504 609 c 0
 504 509 403 490 403 431 c 0
 403 356 587 342 587 166 c 0
 587 51 498 -17 385 -17 c 0
 338 -17 297 -6 266 10 c 1
 313 117 l 1
 328 109 343 105 365 105 c 0
 401 105 424 126 424 169 c 0xb2
 424 278 266 275 266 405 c 0x7a
 266 510 354 506 354 590 c 0
 354 626 330 647 293 647 c 0
 243 647 219 610 219 538 c 2
 219 0 l 1
 61 0 l 1
 61 533 l 2
 61 673 144 759 297 759 c 0x74
EndSplineSet
EndChar
StartChar: uni00E4
Encoding: 228 228 163
Width: 548
Flags: W
HStem: -17 113<225.5 230.5> -14 21G<487 487> 241 87<275 290 290 329> 433 115<234 271.5> 641 158<132.5 178 364 409.5>
VStem: 26 157<142 189.5 142 207> 74 162<698 742> 306 161<698 742> 329 155<147 154 154 241 241 241 328 351 351 360>
LayerCount: 2
Fore
SplineSet
155 641 m 0x7a80
 110 641 74 676 74 720 c 0
 74 764 110 799 155 799 c 0
 201 799 236 764 236 720 c 0
 236 676 201 641 155 641 c 0x7a80
386 641 m 0x7b
 342 641 306 676 306 720 c 0
 306 764 342 799 386 799 c 0
 433 799 467 764 467 720 c 0
 467 676 433 641 386 641 c 0x7b
484 154 m 2xbc80
 484 113 495 98 520 89 c 1
 487 -14 l 1x7a80
 424 -9 383 10 359 63 c 1
 321 4 262 -17 199 -17 c 0
 93 -17 26 52 26 149 c 0
 26 265 114 328 275 328 c 2
 329 328 l 1
 329 351 l 2
 329 414 304 433 239 433 c 0
 205 433 153 423 100 405 c 1
 64 509 l 1
 131 534 204 548 264 548 c 0
 418 548 484 483 484 360 c 2
 484 154 l 2xbc80
245 96 m 0
 282 96 310 115 329 147 c 1
 329 241 l 1
 290 241 l 2
 218 241 183 216 183 163 c 0
 183 121 206 96 245 96 c 0
EndSplineSet
EndChar
StartChar: uni00EC
Encoding: 236 236 171
Width: 280
Flags: W
HStem: 0 21G<61 219 61 61> 511 20G<61 219 219 219> 683 20G<290 290>
VStem: 61 158<0 531 0 531>
LayerCount: 2
Fore
SplineSet
72 835 m 1
 290 703 l 1
 246 622 l 1
 10 717 l 1
 72 835 l 1
219 531 m 1
 219 0 l 1
 61 0 l 1
 61 531 l 1
 219 531 l 1
EndSplineSet
EndChar
StartChar: uni00ED
Encoding: 237 237 172
Width: 280
Flags: W
HStem: 0 21G<61 219 61 61> 511 20G<61 219 219 219>
VStem: 61 158<0 531 0 531>
LayerCount: 2
Fore
SplineSet
212 835 m 1
 274 717 l 1
 38 622 l 1
 -6 703 l 1
 212 835 l 1
219 531 m 1
 219 0 l 1
 61 0 l 1
 61 531 l 1
 219 531 l 1
EndSplineSet
EndChar
StartChar: uni00F7
Encoding: 247 247 182
Width: 519
Flags: W
HStem: 1 180<234 284.5> 271 122<48 470 48 470> 483 181<234 284.5>
VStem: 169 181<66.5 116 549 598.5>
LayerCount: 2
Fore
SplineSet
259 664 m 0
 310 664 350 623 350 574 c 0
 350 524 310 483 259 483 c 0
 209 483 169 524 169 574 c 0
 169 623 209 664 259 664 c 0
48 271 m 1
 48 393 l 1
 470 393 l 1
 470 271 l 1
 48 271 l 1
259 181 m 0
 310 181 350 141 350 91 c 0
 350 42 310 1 259 1 c 0
 209 1 169 42 169 91 c 0
 169 141 209 181 259 181 c 0
EndSplineSet
EndChar
StartChar: uni00F8
Encoding: 248 248 183
Width: 584
Flags: W
HStem: -17 116<286 292 292 327.5 276 373> 432 116<257 292 292 297.5 211 308>
VStem: 32 151<231.5 323.5 231.5 351> 401 151<207.5 299.5>
LayerCount: 2
Fore
SplineSet
438 510 m 1
 511 465 552 381 552 265 c 0
 552 95 454 -17 292 -17 c 0
 280 -17 269 -16 258 -15 c 1
 221 -135 l 1
 106 -101 l 1
 145 21 l 1
 73 67 32 151 32 266 c 0
 32 436 130 548 292 548 c 0
 303 548 314 547 325 546 c 1
 364 667 l 1
 480 633 l 1
 438 510 l 1
292 432 m 2
 222 432 183 381 183 266 c 0
 183 197 192 156 208 132 c 1
 308 432 l 1
 292 432 l 2
292 99 m 2
 363 99 401 150 401 265 c 0
 401 334 392 375 375 399 c 1
 276 99 l 1
 292 99 l 2
EndSplineSet
EndChar
StartChar: uni0105
Encoding: 261 261 196
Width: 548
Flags: W
HStem: -260 98<405 416> -17 113<225.5 230.5> 241 87<275 290 290 329> 433 115<234 271.5>
VStem: 26 157<142 189.5 142 207> 256 114<-131 -105.5> 329 155<147 154 154 241 241 241 328 351 351 360>
LayerCount: 2
Fore
SplineSet
488 -14 m 1xfa
 389 -51 370 -88 370 -116 c 0
 370 -146 387 -162 423 -162 c 0
 442 -162 461 -159 484 -154 c 1
 473 -252 l 1
 451 -257 429 -260 403 -260 c 0
 318 -260 256 -215 256 -143 c 0xfc
 256 -68 310 -19 397 14 c 1
 381 26 369 42 359 63 c 1
 321 4 262 -17 199 -17 c 0
 93 -17 26 52 26 149 c 0
 26 265 114 328 275 328 c 2
 329 328 l 1
 329 351 l 2
 329 414 304 433 239 433 c 0
 205 433 153 423 100 405 c 1
 64 509 l 1
 131 534 204 548 264 548 c 0
 418 548 484 483 484 360 c 2
 484 154 l 2
 484 113 495 98 520 89 c 1
 487 -13 l 1
 488 -14 l 1xfa
245 96 m 0
 282 96 310 115 329 147 c 1
 329 241 l 1
 290 241 l 2
 218 241 183 216 183 163 c 0
 183 121 206 96 245 96 c 0
EndSplineSet
EndChar
StartChar: uni0109
Encoding: 265 265 200
Width: 478
Flags: W
HStem: -17 125<271.5 322 271.5 331.5> 427 121<271 323>
VStem: 32 166<203 321.5 203 345.5>
LayerCount: 2
Fore
SplineSet
157 620 m 1
 101 685 l 1
 242 822 l 1
 339 822 l 1
 480 685 l 1
 424 620 l 1
 291 712 l 1
 157 620 l 1
292 548 m 0
 366 548 423 526 474 483 c 1
 406 389 l 1
 372 415 341 427 305 427 c 0
 237 427 198 381 198 262 c 0
 198 144 240 108 303 108 c 0
 341 108 367 120 405 144 c 1
 474 46 l 1
 425 7 368 -17 295 -17 c 0
 132 -17 32 93 32 261 c 0
 32 430 133 548 292 548 c 0
EndSplineSet
EndChar
StartChar: uni010A
Encoding: 266 266 201
Width: 575
Flags: W
HStem: -17 127<312 385.5 312 398> 589 121<311.5 379.5> 757 180<325.5 380.5>
VStem: 33 172<264.5 433 264.5 464> 260 187<821.5 872.5>
LayerCount: 2
Fore
SplineSet
353 937 m 0
 408 937 447 898 447 847 c 0
 447 796 408 757 353 757 c 0
 298 757 260 796 260 847 c 0
 260 898 298 937 353 937 c 0
348 710 m 0
 438 710 501 683 559 634 c 1
 481 541 l 1
 442 571 403 589 356 589 c 0
 267 589 205 518 205 348 c 0
 205 181 266 110 358 110 c 0
 413 110 453 135 494 166 c 1
 567 72 l 1
 521 26 446 -17 350 -17 c 0
 160 -17 33 111 33 348 c 0
 33 580 168 710 348 710 c 0
EndSplineSet
EndChar
StartChar: uni010B
Encoding: 267 267 202
Width: 478
Flags: W
HStem: -17 125<271.5 322 271.5 331.5> 427 121<271 323> 631 180<262.5 317.5>
VStem: 32 166<203 321.5 203 345.5> 197 187<695.5 746.5>
LayerCount: 2
Fore
SplineSet
290 811 m 0xe8
 345 811 384 772 384 721 c 0
 384 670 345 631 290 631 c 0
 235 631 197 670 197 721 c 0
 197 772 235 811 290 811 c 0xe8
292 548 m 0
 366 548 423 526 474 483 c 1
 406 389 l 1
 372 415 341 427 305 427 c 0
 237 427 198 381 198 262 c 0
 198 144 240 108 303 108 c 0
 341 108 367 120 405 144 c 1
 474 46 l 1
 425 7 368 -17 295 -17 c 0
 132 -17 32 93 32 261 c 0xf0
 32 430 133 548 292 548 c 0
EndSplineSet
EndChar
StartChar: uni010F
Encoding: 271 271 206
Width: 686
Flags: W
HStem: -17 116<257.5 270> 0 21G<393 533 393 393> 433 115<264 275 183.5 309.5> 519 20G<576 576> 528 20G<183.5 275> 722 20G<533 533> 738 20G<599 599> 739 20G<375 375>
VStem: 32 164<200 325.5 200 349> 375 158<159 388 388 388 498 742 0 759 0 759>
LayerCount: 2
Fore
SplineSet
375 498 m 1x61c0
 375 759 l 1x61c0
 533 742 l 1
 533 0 l 1
 393 0 l 1x64c0
 385 62 l 1
 354 18 306 -17 234 -17 c 0xa1c0
 99 -17 32 95 32 267 c 0
 32 431 118 548 249 548 c 0
 301 548 344 529 375 498 c 1x61c0
599 758 m 1x52c0
 718 741 l 1
 663 526 l 1x89c0
 576 539 l 1
 599 758 l 1x52c0
283 99 m 0
 321 99 350 119 375 159 c 1
 375 388 l 1
 351 416 327 433 292 433 c 0xa1c0
 236 433 196 385 196 266 c 0
 196 134 232 99 283 99 c 0
EndSplineSet
EndChar
StartChar: uni0111
Encoding: 273 273 208
Width: 608
Flags: W
HStem: -17 116<257.5 270> 0 21G<393 533 393 393> 433 115<264 275 183.5 309.5> 596 92<243 375 243 375 533 600> 722 20G<533 533> 739 20G<375 375>
VStem: 32 164<200 325.5 200 349> 375 158<159 388 388 388 498 596 0 596 688 742 0 759>
LayerCount: 2
Fore
SplineSet
533 688 m 1x77
 600 688 l 1
 600 596 l 1
 533 596 l 1
 533 0 l 1
 393 0 l 1x77
 385 62 l 1
 354 18 306 -17 234 -17 c 0
 99 -17 32 95 32 267 c 0
 32 431 118 548 249 548 c 0
 301 548 344 529 375 498 c 1
 375 596 l 1
 243 596 l 1
 243 688 l 1
 375 688 l 1
 375 759 l 1xb7
 533 742 l 1x7b
 533 688 l 1x77
283 99 m 0xb7
 321 99 350 119 375 159 c 1
 375 388 l 1
 351 416 327 433 292 433 c 0
 236 433 196 385 196 266 c 0
 196 134 232 99 283 99 c 0xb7
EndSplineSet
EndChar
StartChar: uni0113
Encoding: 275 275 210
Width: 554
Flags: W
HStem: -17 115<281.5 335.5 281.5 342> 219 95<193 370 193 522 193 370> 443 105<257.5 315.5> 655 110<130 435 130 435>
VStem: 32 161<219 219 219 314 219 342.5> 130 305<655 765 655 765> 370 155<314 321 321 321>
LayerCount: 2
Fore
SplineSet
435 765 m 1xf4
 435 655 l 1
 130 655 l 1
 130 765 l 1
 435 765 l 1xf4
525 276 m 0xfa
 525 259 524 235 522 219 c 1
 193 219 l 1
 204 124 249 98 314 98 c 0
 357 98 395 113 441 145 c 1
 506 57 l 1
 453 15 385 -17 299 -17 c 0
 122 -17 32 97 32 263 c 0
 32 422 119 548 280 548 c 0
 432 548 525 448 525 276 c 0xfa
370 314 m 1
 370 321 l 2
 369 393 347 443 284 443 c 0
 231 443 200 409 193 314 c 1
 370 314 l 1
EndSplineSet
EndChar
StartChar: uni0114
Encoding: 276 276 211
Width: 526
Flags: W
HStem: 0 118<229 490 229 490> 295 115<229 442 229 442> 576 117<229 473 229 229> 751 109<255 301 255 330.5>
VStem: 65 164<118 295 410 576>
LayerCount: 2
Fore
SplineSet
278 751 m 0
 173 751 114 828 106 913 c 1
 193 928 l 1
 205 890 232 860 278 860 c 0
 324 860 351 890 364 928 c 1
 451 913 l 1
 443 828 383 751 278 751 c 0
490 693 m 1
 473 576 l 1
 229 576 l 1
 229 410 l 1
 442 410 l 1
 442 295 l 1
 229 295 l 1
 229 118 l 1
 490 118 l 1
 490 0 l 1
 65 0 l 1
 65 693 l 1
 490 693 l 1
EndSplineSet
EndChar
StartChar: uni0118
Encoding: 280 280 215
Width: 526
Flags: W
HStem: -246 98<367 378> 0 118<229 300 450 490 450 450> 295 115<229 442 229 442> 576 117<229 473 229 229>
VStem: 65 164<118 295 118 410 410 576> 218 114<-117 -101>
LayerCount: 2
Fore
SplineSet
229 295 m 1x78
 229 118 l 1x78
 490 118 l 1
 490 0 l 1
 450 0 l 1
 351 -37 332 -74 332 -102 c 0
 332 -132 349 -148 385 -148 c 0
 404 -148 423 -145 446 -140 c 1
 435 -238 l 1
 413 -243 391 -246 365 -246 c 0
 280 -246 218 -201 218 -129 c 0
 218 -73 248 -31 300 0 c 1xf4
 65 0 l 1
 65 693 l 1
 490 693 l 1
 473 576 l 1
 229 576 l 1
 229 410 l 1
 442 410 l 1
 442 295 l 1
 229 295 l 1x78
EndSplineSet
EndChar
StartChar: uni0121
Encoding: 289 289 224
Width: 551
Flags: W
HStem: -222 105<216 310.5 216 351> -5 113<168 335 255 303> 164 102<264 294 244 344> 444 104<243.5 264 194.5 294.5> 479 69 631 180<247.5 302.5>
VStem: 6 142<-74 -51 -74 -51> 31 157<327 383.5 327 414> 63 134<71.5 146> 182 187<695.5 746.5> 348 150<327.5 376.5 290.5 387.5> 379 159<-74 -41.5>
LayerCount: 2
Fore
SplineSet
275 811 m 0xf440
 330 811 369 772 369 721 c 0
 369 670 330 631 275 631 c 0
 220 631 182 670 182 721 c 0
 182 772 220 811 275 811 c 0xf440
514 617 m 1
 551 500 l 1
 514 485 465 479 398 479 c 1
 465 450 498 411 498 342 c 0
 498 239 413 164 275 164 c 0
 253 164 233 166 214 170 c 1
 203 164 197 152 197 140 c 0
 197 124 204 108 255 108 c 2xeca0
 335 108 l 2
 459 108 538 43 538 -46 c 0
 538 -155 442 -222 260 -222 c 0
 59 -222 6 -156 6 -51 c 1
 148 -51 l 1xf610
 148 -97 168 -117 264 -117 c 0
 357 -117 379 -91 379 -57 c 0
 379 -26 356 -5 303 -5 c 2
 226 -5 l 2
 110 -5 63 43 63 100 c 0xf490
 63 139 88 178 126 202 c 1
 58 238 31 285 31 354 c 0xf520
 31 474 125 548 264 548 c 0
 382 545 450 579 514 617 c 1
268 444 m 0xf520
 219 444 188 411 188 356 c 0
 188 298 220 266 268 266 c 0
 320 266 348 297 348 358 c 0
 348 417 321 444 268 444 c 0xf520
EndSplineSet
EndChar
StartChar: uni012D
Encoding: 301 301 236
Width: 280
Flags: W
HStem: 0 21G<61 219 61 61> 511 20G<61 219 219 219> 632 110<116 162 116 191.5>
VStem: 61 158<0 531 0 531>
LayerCount: 2
Fore
SplineSet
139 632 m 0
 34 632 -25 709 -33 805 c 1
 54 820 l 1
 66 772 93 742 139 742 c 0
 185 742 212 772 225 820 c 1
 312 805 l 1
 304 709 244 632 139 632 c 0
219 531 m 1
 219 0 l 1
 61 0 l 1
 61 531 l 1
 219 531 l 1
EndSplineSet
EndChar
StartChar: uni0131
Encoding: 305 305 240
Width: 280
Flags: W
HStem: 0 21G<61 219 61 61> 511 20G<61 219 219 219>
VStem: 61 158<0 531 0 531>
LayerCount: 2
Fore
SplineSet
219 531 m 1
 219 0 l 1
 61 0 l 1
 61 531 l 1
 219 531 l 1
EndSplineSet
EndChar
StartChar: uni0132
Encoding: 306 306 241
Width: 610
Flags: W
HStem: 0 21G<65 229 65 65> 673 20G<65 229 229 229 385 549 549 549>
VStem: 65 164<0 693 0 693> 385 164<111 693>
LayerCount: 2
Fore
SplineSet
229 693 m 1
 229 0 l 1
 65 0 l 1
 65 693 l 1
 229 693 l 1
549 693 m 1
 549 105 l 2
 549 -70 443 -131 326 -169 c 1
 282 -53 l 1
 372 -18 385 29 385 111 c 2
 385 693 l 1
 549 693 l 1
EndSplineSet
EndChar
StartChar: uni013B
Encoding: 315 315 250
Width: 513
Flags: W
HStem: -210 21G<228 228> 0 130<229 482> 673 20G<65 229 229 229>
VStem: 65 164<130 693 130 693 130 693> 195 158<-158 -124>
LayerCount: 2
Fore
SplineSet
229 693 m 1xf0
 229 130 l 1
 499 130 l 1
 482 0 l 1
 65 0 l 1
 65 693 l 1
 229 693 l 1xf0
274 -68 m 0xe8
 320 -68 353 -101 353 -145 c 0
 353 -171 345 -191 326 -229 c 2
 280 -325 l 1
 201 -325 l 1
 228 -210 l 1
 209 -195 195 -174 195 -145 c 0
 195 -103 228 -68 274 -68 c 0xe8
EndSplineSet
EndChar
StartChar: uni0140
Encoding: 320 320 255
Width: 442
Flags: W
HStem: -17 21G<154 219.5> -17 125<154 245> 287 179<328.5 383.5> 722 20G<54 54> 739 20G<212 212>
VStem: 54 158<135 141 141 742 742 742> 262 187<351 401.5>
LayerCount: 2
Fore
SplineSet
200 -17 m 0xac
 108 -17 54 38 54 135 c 2
 54 742 l 1xb4
 212 759 l 1
 212 141 l 2
 212 119 221 108 240 108 c 0
 250 108 259 110 266 113 c 1x6c
 296 1 l 1
 273 -9 239 -17 200 -17 c 0xac
356 466 m 0xae
 411 466 449 427 449 376 c 0
 449 326 411 287 356 287 c 0
 301 287 262 326 262 376 c 0
 262 427 301 466 356 466 c 0xae
EndSplineSet
EndChar
StartChar: uni0149
Encoding: 329 329 264
Width: 698
Flags: W
HStem: 0 21G<185 343 185 185 486 644 486 486> 432 116<418 542> 511 20G<185 323 323 323> 740 20G<82.5 122>
VStem: 33 139<680.5 710.5> 185 158<0 363 0 531> 486 158<0 361 361 388 0 389>
LayerCount: 2
Fore
SplineSet
102 760 m 0xde
 142 760 172 731 172 692 c 0
 172 669 165 652 148 617 c 2
 107 535 l 1
 38 535 l 1
 62 635 l 1
 45 648 33 667 33 692 c 0
 33 729 63 760 102 760 c 0xde
496 548 m 0
 588 548 644 489 644 388 c 2
 644 0 l 1
 486 0 l 1
 486 361 l 2
 486 417 466 432 436 432 c 0
 400 432 371 407 343 363 c 1xd6
 343 0 l 1
 185 0 l 1
 185 531 l 1
 323 531 l 1xb6
 335 468 l 1
 379 520 430 548 496 548 c 0
EndSplineSet
EndChar
StartChar: uni014F
Encoding: 335 335 270
Width: 584
Flags: W
HStem: -17 116<260 324 260 373> 432 116<260 324> 632 110<268 314 268 343.5>
VStem: 32 164<207 323.5 207 351> 388 164<207.5 324>
LayerCount: 2
Fore
SplineSet
291 632 m 0
 186 632 127 709 119 805 c 1
 206 820 l 1
 218 772 245 742 291 742 c 0
 337 742 364 772 377 820 c 1
 464 805 l 1
 456 709 396 632 291 632 c 0
292 548 m 0
 454 548 552 444 552 265 c 0
 552 95 454 -17 292 -17 c 0
 131 -17 32 87 32 266 c 0
 32 436 130 548 292 548 c 0
292 432 m 0
 228 432 196 381 196 266 c 0
 196 148 228 99 292 99 c 0
 356 99 388 150 388 265 c 0
 388 383 356 432 292 432 c 0
EndSplineSet
EndChar
StartChar: uni0155
Encoding: 341 341 276
Width: 400
Flags: W
HStem: 0 21G<61 219 61 61> 393 153<318.5 337.5> 511 20G<61 198 198 198> 526 20G<318.5 359> 539 7
VStem: 61 158<0 267 0 531>
LayerCount: 2
Fore
SplineSet
366 717 m 1x94
 130 622 l 1
 86 703 l 1
 304 835 l 1
 366 717 l 1x94
349 546 m 0
 369 546 384 544 402 539 c 1x8c
 377 386 l 1
 360 390 346 393 329 393 c 0xc4
 264 393 237 346 219 267 c 1
 219 0 l 1
 61 0 l 1
 61 531 l 1
 198 531 l 1xa4
 212 428 l 1
 236 502 288 546 349 546 c 0
EndSplineSet
EndChar
StartChar: uni0157
Encoding: 343 343 278
Width: 400
Flags: W
HStem: -210 21G<95 95> 0 21G<61 219 61 61> 393 153<318.5 337.5> 511 20G<61 198 198 198> 526 20G<318.5 359> 539 7
VStem: 61 158<0 267 0 531>
LayerCount: 2
Fore
SplineSet
349 546 m 0xca
 369 546 384 544 402 539 c 1xc6
 377 386 l 1
 360 390 346 393 329 393 c 0xe2
 264 393 237 346 219 267 c 1
 219 0 l 1
 61 0 l 1
 61 531 l 1
 198 531 l 1xd2
 212 428 l 1
 236 502 288 546 349 546 c 0xca
141 -68 m 0
 187 -68 220 -101 220 -145 c 0
 220 -171 212 -191 193 -229 c 2
 147 -325 l 1
 68 -325 l 1
 95 -210 l 1
 76 -195 62 -174 62 -145 c 0
 62 -103 95 -68 141 -68 c 0
EndSplineSet
EndChar
StartChar: uni0172
Encoding: 370 370 305
Width: 651
Flags: W
HStem: -246 98<355 366.5> -16 21G -16 121 673 20G<55 219 219 219 432 596 596 596>
VStem: 55 164<230 237 237 693> 206 114<-117 -103> 432 164<237 693>
LayerCount: 2
Fore
SplineSet
432 693 m 1xda
 596 693 l 1
 596 230 l 2
 596 122 543 34 436 -1 c 1
 340 -37 320 -74 320 -102 c 0
 320 -132 337 -148 373 -148 c 0
 393 -148 411 -145 434 -140 c 1
 423 -238 l 1
 402 -243 380 -246 353 -246 c 0
 268 -246 206 -201 206 -129 c 0xd6
 206 -77 239 -40 290 -16 c 1
 132 -3 55 94 55 230 c 2
 55 693 l 1
 219 693 l 1
 219 237 l 2
 219 148 251 105 325 105 c 0xba
 400 105 432 148 432 237 c 2
 432 693 l 1xda
EndSplineSet
EndChar
StartChar: uni0179
Encoding: 377 377 312
Width: 544
Flags: W
HStem: 0 131<211 501> 566 127<49 325 49 512>
VStem: 18 499<0 131 123 131>
LayerCount: 2
Fore
SplineSet
357 956 m 1
 416 838 l 1
 176 751 l 1
 136 831 l 1
 357 956 l 1
512 693 m 1
 512 569 l 1
 211 131 l 1
 517 131 l 1
 501 0 l 1
 18 0 l 1
 18 123 l 1
 325 566 l 1
 49 566 l 1
 49 693 l 1
 512 693 l 1
EndSplineSet
EndChar
StartChar: uni0185
Encoding: 389 389 324
Width: 541
Flags: W
HStem: 0 104<238 282 282 299> 265 101<238 274 238 276> 511 20G<106 238 238 238>
VStem: 80 158<104 265 104 339 104 339> 363 161<157.5 211>
LayerCount: 2
Fore
SplineSet
276 366 m 2
 452 366 524 301 524 182 c 0
 524 60 429 0 299 0 c 2
 80 0 l 1
 80 339 l 1
 5 390 l 1
 45 431 77 475 106 531 c 1
 238 531 l 1
 238 366 l 1
 276 366 l 2
282 104 m 2
 334 104 363 130 363 185 c 0
 363 237 341 265 274 265 c 2
 238 265 l 1
 238 104 l 1
 282 104 l 2
EndSplineSet
EndChar
StartChar: uni0188
Encoding: 392 392 327
Width: 479
Flags: W
HStem: -17 125<271.5 322 271.5 331.5> 427 121<272 284.5 203.5 329.5> 519 20G<334 334> 642 117<508 534 447.5 538>
VStem: 32 166<203 321.5 203 345.5> 334 140<539 581>
LayerCount: 2
Fore
SplineSet
504 759 m 0xdc
 564 759 608 741 639 721 c 1
 593 623 l 1
 570 635 551 642 525 642 c 0
 491 642 474 624 474 581 c 2
 474 483 l 1
 415 401 l 1
 384 417 352 427 307 427 c 0
 237 427 198 381 198 262 c 0
 198 144 240 108 303 108 c 0
 341 108 367 120 405 144 c 1
 474 46 l 1
 425 7 368 -17 295 -17 c 0
 132 -17 32 93 32 261 c 0
 32 430 134 548 273 548 c 0xdc
 296 548 316 545 334 539 c 1xbc
 334 588 l 2
 334 696 391 759 504 759 c 0xdc
EndSplineSet
EndChar
StartChar: uni0189
Encoding: 393 393 328
Width: 665
Flags: W
HStem: 0 119<242 287> 304 98<14 78 14 78 242 377> 574 119<242 272 272 295 242 242>
VStem: 78 164<119 304 119 304 119 304 402 574> 462 170<258 443>
LayerCount: 2
Fore
SplineSet
272 693 m 2
 457 693 632 636 632 350 c 0
 632 71 464 0 287 0 c 2
 78 0 l 1
 78 304 l 1
 14 304 l 1
 14 402 l 1
 78 402 l 1
 78 693 l 1
 272 693 l 2
297 119 m 2
 396 119 462 166 462 350 c 0
 462 536 391 574 295 574 c 2
 242 574 l 1
 242 402 l 1
 377 402 l 1
 377 304 l 1
 242 304 l 1
 242 119 l 1
 297 119 l 2
EndSplineSet
EndChar
StartChar: uni0190
Encoding: 400 400 335
Width: 541
Flags: W
HStem: -17 121<278.5 343 278.5 352> 306 118<319 322 322 375> 591 119<275.5 333.5>
VStem: 26 172<172.5 236.5 172.5 247> 47 169<488.5 532.5 483 580.5>
LayerCount: 2
Fore
SplineSet
291 710 m 0xf0
 386 710 459 679 523 618 c 1
 444 535 l 1
 401 573 357 591 310 591 c 0
 241 591 216 555 216 510 c 0xe8
 216 456 253 424 319 424 c 2
 395 424 l 1
 375 306 l 1
 322 306 l 2
 238 306 198 268 198 205 c 0
 198 140 242 104 315 104 c 0
 371 104 413 125 456 166 c 1
 543 80 l 1
 485 18 405 -17 299 -17 c 0
 140 -17 26 66 26 195 c 0xf0
 26 299 95 356 202 368 c 1
 98 389 47 449 47 528 c 0xe8
 47 633 143 710 291 710 c 0xf0
EndSplineSet
EndChar
StartChar: uni0192
Encoding: 402 402 337
Width: 372
Flags: W
HStem: -221 21G<33 33> 421 110<7 88 7 88 246 354> 642 117<289 321.5 223.5 329>
VStem: 88 158<50 60 60 421 531 572>
LayerCount: 2
Fore
SplineSet
316 642 m 0
 262 642 246 622 246 572 c 2
 246 531 l 1
 372 531 l 1
 354 421 l 1
 246 421 l 1
 246 60 l 2
 246 -113 157 -176 33 -221 c 1
 -20 -106 l 1
 48 -75 88 -47 88 50 c 2
 88 421 l 1
 7 421 l 1
 7 531 l 1
 88 531 l 1
 88 578 l 2
 88 680 156 759 291 759 c 0
 352 759 404 745 446 725 c 1
 403 622 l 1
 369 637 342 642 316 642 c 0
EndSplineSet
EndChar
StartChar: uni0197
Encoding: 407 407 342
Width: 330
Flags: W
HStem: 0 21G<83 247 83 83> 299 121<6 83 6 83 247 324> 673 20G<83 247 247 247>
VStem: 83 164<0 299 0 299 420 693>
LayerCount: 2
Fore
SplineSet
324 420 m 1
 324 299 l 1
 247 299 l 1
 247 0 l 1
 83 0 l 1
 83 299 l 1
 6 299 l 1
 6 420 l 1
 83 420 l 1
 83 693 l 1
 247 693 l 1
 247 420 l 1
 324 420 l 1
EndSplineSet
EndChar
StartChar: uni019D
Encoding: 413 413 348
Width: 663
Flags: W
HStem: -222 115<-7 25.5 -7 80.5> 0 21G<390 599 390 390> 0 155<474 474 474 599 390 474> 537 156<190 190> 673 20G<65 269 269 269 452 599 599 599>
VStem: 65 146<-46 -32 -32 254> 452 147<413 693 0 693>
LayerCount: 2
Fore
SplineSet
452 693 m 1xce
 599 693 l 1
 599 0 l 1
 390 0 l 1
 190 537 l 1xd6
 198 474 211 382 211 254 c 2
 211 -32 l 2
 211 -159 136 -222 25 -222 c 0
 -39 -222 -84 -203 -116 -179 c 1
 -62 -85 l 1
 -39 -98 -22 -107 8 -107 c 0
 43 -107 65 -87 65 -46 c 2
 65 693 l 1
 269 693 l 1
 474 155 l 1xae
 465 211 452 302 452 413 c 2
 452 693 l 1xce
EndSplineSet
EndChar
StartChar: uni01A1
Encoding: 417 417 352
Width: 625
Flags: W
HStem: -17 116<260 324 260 373> 432 116<260 324>
VStem: 32 164<207 323.5 207 351> 388 164<207.5 290.5 180 324> 527 108<510.5 541.5>
LayerCount: 2
Fore
SplineSet
635 521 m 0xe8
 635 451 596 411 529 399 c 1
 544 361 552 316 552 265 c 0xf0
 552 95 454 -17 292 -17 c 0
 131 -17 32 87 32 266 c 0
 32 436 130 548 292 548 c 0
 374 548 439 521 484 472 c 1
 515 477 527 494 527 527 c 0
 527 556 522 574 515 594 c 1
 616 609 l 1
 626 590 635 563 635 521 c 0xe8
292 99 m 0xf0
 356 99 388 150 388 265 c 0
 388 383 356 432 292 432 c 0
 228 432 196 381 196 266 c 0
 196 148 228 99 292 99 c 0xf0
EndSplineSet
EndChar
StartChar: uni01A6
Encoding: 422 422 357
Width: 617
Flags: W
HStem: 0 21G<65 229 65 65> 150 114<229 293 229 298> 463 116<229 292 229 288> 673 20G<65 229 229 229>
VStem: 65 164<0 150 0 264 264 463 579 693> 408 169<331.5 401>
LayerCount: 2
Fore
SplineSet
435 -115 m 1
 293 150 l 1
 229 150 l 1
 229 0 l 1
 65 0 l 1
 65 693 l 1
 229 693 l 1
 229 579 l 1
 292 579 l 2
 480 579 577 512 577 368 c 0
 577 276 534 222 444 180 c 1
 620 -115 l 1
 435 -115 l 1
229 463 m 1
 229 264 l 1
 298 264 l 2
 370 264 408 295 408 368 c 0
 408 434 369 463 288 463 c 2
 229 463 l 1
EndSplineSet
EndChar
StartChar: uni01AD
Encoding: 429 429 364
Width: 386
Flags: W
HStem: -17 125<268.5 275> 421 110<2 77 2 77 235 340> 649 110<267.5 291 201.5 294.5>
VStem: 77 158<175 177 177 421 531 576 576 587>
LayerCount: 2
Fore
SplineSet
342 126 m 1
 395 25 l 1
 355 -3 299 -17 251 -17 c 0
 134 -16 77 50 77 175 c 2
 77 421 l 1
 2 421 l 1
 2 531 l 1
 77 531 l 1
 77 576 l 2
 77 684 141 759 262 759 c 0
 320 759 363 741 394 721 c 1
 348 629 l 1
 325 641 306 649 283 649 c 0
 252 649 235 630 235 587 c 2
 235 531 l 1
 357 531 l 1
 340 421 l 1
 235 421 l 1
 235 177 l 2
 235 126 252 108 285 108 c 0
 303 108 321 113 342 126 c 1
EndSplineSet
EndChar
StartChar: uni01AE
Encoding: 430 430 365
Width: 542
Flags: W
HStem: -222 119<389 421 389 421.5> 567 126<9 188 9 539 352 352 352 523>
VStem: 188 164<-31 567>
LayerCount: 2
Fore
SplineSet
406 -103 m 0
 436 -103 453 -94 476 -82 c 1
 530 -179 l 1
 498 -203 454 -222 389 -222 c 0
 268 -222 188 -159 188 -31 c 2
 188 567 l 1
 9 567 l 1
 9 693 l 1
 539 693 l 1
 523 567 l 1
 352 567 l 1
 352 -42 l 2
 352 -83 372 -103 406 -103 c 0
EndSplineSet
EndChar
StartChar: uni01B2
Encoding: 434 434 369
Width: 651
Flags: W
HStem: -17 122<279.5 346 279.5 392.5> 591 119<396 492> 673 20G<55 219 219 219 348 348> 690 20G<424 492>
VStem: 55 164<214 215 215 693> 432 164<290 292 292 544>
LayerCount: 2
Fore
SplineSet
444 710 m 0x9c
 540 710 596 659 596 544 c 2
 596 292 l 2
 596 98 480 -17 305 -17 c 0
 147 -17 55 81 55 214 c 2
 55 693 l 1
 219 693 l 1xac
 219 215 l 2
 219 146 250 105 309 105 c 0
 383 105 432 159 432 290 c 2
 432 552 l 2
 432 580 423 591 401 591 c 0
 391 591 382 589 374 586 c 1xcc
 348 693 l 1
 375 704 404 710 444 710 c 0x9c
EndSplineSet
EndChar
StartChar: uni01B9
Encoding: 441 441 376
Width: 505
Flags: W
HStem: -222 121<255 317.5 255 334> 120 92<229 301 229 394> 413 118<221 477 221 221>
VStem: 13 163<-25.5 49 -25.5 67>
LayerCount: 2
Fore
SplineSet
436 -40 m 1
 517 -119 l 1
 463 -183 389 -222 279 -222 c 0
 113 -222 13 -124 13 3 c 0
 13 131 93 204 229 212 c 1
 45 423 l 1
 45 531 l 1
 477 531 l 1
 477 413 l 1
 221 413 l 1
 394 209 l 1
 394 120 l 1
 301 120 l 2
 218 120 176 86 176 12 c 0
 176 -63 221 -101 289 -101 c 0
 346 -101 387 -83 436 -40 c 1
EndSplineSet
EndChar
StartChar: uni01BC
Encoding: 444 444 379
Width: 543
Flags: W
HStem: -17 119<208 270.5 208 323.5> 346 108<238.5 371> 580 113<210 461 210 210>
VStem: 58 152<430 580 430 693 430 693> 348 162<186 272>
LayerCount: 2
Fore
SplineSet
478 693 m 1
 461 580 l 1
 210 580 l 1
 210 430 l 1
 247 448 282 454 316 454 c 0
 426 454 510 374 510 228 c 0
 510 80 406 -17 241 -17 c 0
 140 -17 65 26 13 85 c 1
 101 167 l 1
 136 126 181 102 235 102 c 0
 306 102 348 144 348 228 c 0
 348 316 308 346 253 346 c 0
 224 346 200 339 166 322 c 1
 58 322 l 1
 58 693 l 1
 478 693 l 1
EndSplineSet
EndChar
StartChar: uni01BD
Encoding: 445 445 380
Width: 479
Flags: W
HStem: -17 118<191 239 191 289> 242 106<217.5 328> 416 115<200 397 200 200>
VStem: 60 140<333 416 333 531 333 531> 294 158<151 199>
LayerCount: 2
Fore
SplineSet
419 531 m 1
 397 416 l 1
 200 416 l 1
 200 333 l 1
 220 342 245 348 282 348 c 0
 374 348 452 285 452 174 c 0
 452 59 358 -17 220 -17 c 0
 126 -17 68 15 18 64 c 1
 97 149 l 1
 140 117 167 101 215 101 c 0
 263 101 294 127 294 175 c 0
 294 223 266 242 231 242 c 0
 204 242 186 237 163 228 c 1
 60 228 l 1
 60 531 l 1
 419 531 l 1
EndSplineSet
EndChar
StartChar: uni01C2
Encoding: 450 450 385
Width: 330
Flags: W
HStem: 0 21G<97 234 97 97> 247 91<6 97 6 97 234 324> 396 91<6 97 6 97 234 324> 722 20G<97 97> 736 20G<234 234>
VStem: 97 137<0 247 0 247 338 396 487 742 742 742>
LayerCount: 2
Fore
SplineSet
324 396 m 1xec
 234 396 l 1
 234 338 l 1
 324 338 l 1
 324 247 l 1
 234 247 l 1
 234 0 l 1
 97 0 l 1
 97 247 l 1
 6 247 l 1
 6 338 l 1
 97 338 l 1
 97 396 l 1
 6 396 l 1
 6 487 l 1
 97 487 l 1
 97 742 l 1xf4
 234 756 l 1
 234 487 l 1
 324 487 l 1
 324 396 l 1xec
EndSplineSet
EndChar
StartChar: uni01C6
Encoding: 454 454 389
Width: 1048
Flags: W
HStem: -17 116<257.5 270> 0 120<790 1021> 412 119<628 848 628 1030> 433 115<264 275 183.5 309.5> 722 20G 728 20G<637 637 1016 1016> 739 20G<375 375>
VStem: 32 164<200 325.5 200 349> 375 158<159 388 388 388 498 742 0 759 0 759>
LayerCount: 2
Fore
SplineSet
875 611 m 1x6380
 779 611 l 1
 637 748 l 1
 694 813 l 1
 827 722 l 1
 960 813 l 1
 1016 748 l 1x9580
 875 611 l 1x6380
375 498 m 1
 375 759 l 1x6380
 533 742 l 1
 533 0 l 1
 393 0 l 1x6980
 385 62 l 1
 354 18 306 -17 234 -17 c 0
 99 -17 32 95 32 267 c 0
 32 431 118 548 249 548 c 0
 301 548 344 529 375 498 c 1
790 120 m 1
 1035 120 l 1
 1021 0 l 1
 607 0 l 1
 607 112 l 1
 848 412 l 1
 628 412 l 1
 628 531 l 1
 1030 531 l 1
 1030 420 l 1
 790 120 l 1
283 99 m 0x9380
 321 99 350 119 375 159 c 1
 375 388 l 1
 351 416 327 433 292 433 c 0
 236 433 196 385 196 266 c 0
 196 134 232 99 283 99 c 0x9380
EndSplineSet
EndChar
StartChar: uni01C8
Encoding: 456 456 391
Width: 783
Flags: W
HStem: -221 21G<509 509> 0 130<229 482> 511 20G<564 722 722 722> 631 180<615.5 670.5> 673 20G<65 229 229 229>
VStem: 65 164<130 693 130 693 130 693> 550 187<695.5 746.5> 564 158<50 60 60 531>
LayerCount: 2
Fore
SplineSet
643 811 m 0xf6
 698 811 737 772 737 721 c 0
 737 670 698 631 643 631 c 0
 588 631 550 670 550 721 c 0
 550 772 588 811 643 811 c 0xf6
229 693 m 1xed
 229 130 l 1
 499 130 l 1
 482 0 l 1
 65 0 l 1
 65 693 l 1
 229 693 l 1xed
722 531 m 1
 722 60 l 2
 722 -113 633 -176 509 -221 c 1
 456 -106 l 1
 524 -75 564 -47 564 50 c 2
 564 531 l 1
 722 531 l 1
EndSplineSet
EndChar
StartChar: uni01C9
Encoding: 457 457 392
Width: 580
Flags: W
HStem: -221 21G<306 306> -17 21G<154 219.5> -17 125<154 245> 511 20G<361 519 519 519> 631 180<412.5 467.5> 722 20G<54 54> 739 20G<212 212>
VStem: 54 158<135 141 141 742 742 742> 347 187<695.5 746.5> 361 158<50 60 60 531>
LayerCount: 2
Fore
SplineSet
440 811 m 0xd980
 495 811 534 772 534 721 c 0
 534 670 495 631 440 631 c 0
 385 631 347 670 347 721 c 0
 347 772 385 811 440 811 c 0xd980
200 -17 m 0
 108 -17 54 38 54 135 c 2
 54 742 l 1xd540
 212 759 l 1
 212 141 l 2
 212 119 221 108 240 108 c 0
 250 108 259 110 266 113 c 1xb340
 296 1 l 1
 273 -9 239 -17 200 -17 c 0
519 531 m 1xd340
 519 60 l 2
 519 -113 430 -176 306 -221 c 1
 253 -106 l 1
 321 -75 361 -47 361 50 c 2
 361 531 l 1
 519 531 l 1xd340
EndSplineSet
EndChar
StartChar: uni01D2
Encoding: 466 466 401
Width: 584
Flags: W
HStem: -17 116<260 324 260 373> 432 116<260 324> 728 20G<102 102 481 481>
VStem: 32 164<207 323.5 207 351> 388 164<207.5 324>
LayerCount: 2
Fore
SplineSet
425 813 m 1
 481 748 l 1
 340 611 l 1
 244 611 l 1
 102 748 l 1
 159 813 l 1
 292 722 l 1
 425 813 l 1
292 548 m 0
 454 548 552 444 552 265 c 0
 552 95 454 -17 292 -17 c 0
 131 -17 32 87 32 266 c 0
 32 436 130 548 292 548 c 0
292 432 m 0
 228 432 196 381 196 266 c 0
 196 148 228 99 292 99 c 0
 356 99 388 150 388 265 c 0
 388 383 356 432 292 432 c 0
EndSplineSet
EndChar
StartChar: uni01D3
Encoding: 467 467 402
Width: 651
Flags: W
HStem: -17 122<288 362.5 288 415.5> 673 20G<55 219 219 219 432 596 596 596>
VStem: 55 164<230 237 237 693> 432 164<237 693>
LayerCount: 2
Fore
SplineSet
459 944 m 1
 515 879 l 1
 374 750 l 1
 278 750 l 1
 136 879 l 1
 193 944 l 1
 326 860 l 1
 459 944 l 1
596 693 m 1
 596 230 l 2
 596 90 506 -17 325 -17 c 0
 144 -17 55 84 55 230 c 2
 55 693 l 1
 219 693 l 1
 219 237 l 2
 219 148 251 105 325 105 c 0
 400 105 432 148 432 237 c 2
 432 693 l 1
 596 693 l 1
EndSplineSet
EndChar
StartChar: uni01D4
Encoding: 468 468 403
Width: 568
Flags: W
HStem: -17 117<152.5 279.5> 0 21G<370 507 370 370> 511 20G<54 212 212 212 349 507 507 507> 728 20G<92 92 471 471>
VStem: 54 158<150 170 170 531> 349 158<162 531 0 531>
LayerCount: 2
Fore
SplineSet
415 813 m 1x7c
 471 748 l 1
 330 611 l 1
 234 611 l 1
 92 748 l 1
 149 813 l 1
 282 722 l 1
 415 813 l 1x7c
507 531 m 1
 507 0 l 1
 370 0 l 1x7c
 363 67 l 1
 325 11 273 -17 202 -17 c 0
 103 -17 54 47 54 150 c 2
 54 531 l 1
 212 531 l 1
 212 170 l 2
 212 116 230 100 263 100 c 0
 296 100 326 122 349 162 c 1xbc
 349 531 l 1
 507 531 l 1
EndSplineSet
EndChar
StartChar: uni01D9
Encoding: 473 473 408
Width: 651
Flags: W
HStem: -17 122<288 362.5 288 415.5> 673 20G<55 219 219 219 432 596 596 596> 748 158<180 225.5 424 469.5>
VStem: 55 164<230 237 237 693> 122 162<805 849> 367 161<805 849> 432 164<237 693>
LayerCount: 2
Fore
SplineSet
457 1099 m 1xf2
 513 1035 l 1
 372 905 l 1
 275 905 l 1
 134 1035 l 1
 191 1099 l 1
 323 1015 l 1
 457 1099 l 1xf2
203 906 m 0
 248 906 284 871 284 827 c 0xea
 284 783 248 748 203 748 c 0
 157 748 122 783 122 827 c 0
 122 871 157 906 203 906 c 0
447 906 m 0
 492 906 528 871 528 827 c 0xf2
 528 783 492 748 447 748 c 0
 401 748 367 783 367 827 c 0xf4
 367 871 401 906 447 906 c 0
596 693 m 1
 596 230 l 2
 596 90 506 -17 325 -17 c 0
 144 -17 55 84 55 230 c 2
 55 693 l 1
 219 693 l 1
 219 237 l 2
 219 148 251 105 325 105 c 0
 400 105 432 148 432 237 c 2
 432 693 l 1
 596 693 l 1
EndSplineSet
EndChar
StartChar: uni01DB
Encoding: 475 475 410
Width: 651
Flags: W
HStem: -17 122<288 362.5 288 415.5> 673 20G<55 219 219 219 432 596 596 596> 748 158<180.5 226 424.5 470>
VStem: 55 164<230 237 237 693> 122 162<805 849> 366 162<805 849> 432 164<237 693>
LayerCount: 2
Fore
SplineSet
256 1097 m 1xf2
 388 926 l 1
 328 872 l 1
 170 1013 l 1
 256 1097 l 1xf2
203 906 m 0
 249 906 284 871 284 827 c 0xea
 284 783 249 748 203 748 c 0
 158 748 122 783 122 827 c 0
 122 871 158 906 203 906 c 0
447 906 m 0
 493 906 528 871 528 827 c 0xf2
 528 783 493 748 447 748 c 0
 402 748 366 783 366 827 c 0xf4
 366 871 402 906 447 906 c 0
596 693 m 1
 596 230 l 2
 596 90 506 -17 325 -17 c 0
 144 -17 55 84 55 230 c 2
 55 693 l 1
 219 693 l 1
 219 237 l 2
 219 148 251 105 325 105 c 0
 400 105 432 148 432 237 c 2
 432 693 l 1
 596 693 l 1
EndSplineSet
EndChar
StartChar: uni01EF
Encoding: 495 495 430
Width: 505
Flags: W
HStem: -222 121<186 248.5 186 307.5> 120 93<111 276> 413 118<27 282 27 460> 728 20G<54 54 433 433>
VStem: 329 163<-22 56>
LayerCount: 2
Fore
SplineSet
292 611 m 1
 196 611 l 1
 54 748 l 1
 111 813 l 1
 244 722 l 1
 377 813 l 1
 433 748 l 1
 292 611 l 1
276 213 m 1
 413 204 492 139 492 9 c 0
 492 -123 392 -222 223 -222 c 0
 115 -222 41 -183 -12 -119 c 1
 71 -39 l 1
 118 -82 158 -101 214 -101 c 0
 283 -101 329 -63 329 19 c 0
 329 93 286 120 203 120 c 2
 111 120 l 1
 111 212 l 1
 282 413 l 1
 27 413 l 1
 27 531 l 1
 460 531 l 1
 460 423 l 1
 276 213 l 1
EndSplineSet
EndChar
StartChar: uni01F0
Encoding: 496 496 431
Width: 280
Flags: W
HStem: -221 21G<6 6> 511 20G<61 219 219 219> 728 20G<-49 -49 330 330>
VStem: 61 158<50 60 60 531>
LayerCount: 2
Fore
SplineSet
274 813 m 1
 330 748 l 1
 189 611 l 1
 93 611 l 1
 -49 748 l 1
 8 813 l 1
 141 722 l 1
 274 813 l 1
219 531 m 1
 219 60 l 2
 219 -113 130 -176 6 -221 c 1
 -47 -106 l 1
 21 -75 61 -47 61 50 c 2
 61 531 l 1
 219 531 l 1
EndSplineSet
EndChar
StartChar: uni01F1
Encoding: 497 497 432
Width: 1170
Flags: W
HStem: 0 119<229 273> 0 131<837 1127> 566 127<675 951> 574 119<229 258 258 281 229 229>
VStem: 65 164<119 574 119 693 119 693> 448 170<258 443>
LayerCount: 2
Fore
SplineSet
258 693 m 2x6c
 443 693 618 636 618 350 c 0
 618 71 450 0 273 0 c 2
 65 0 l 1
 65 693 l 1
 258 693 l 2x6c
1138 693 m 1
 1138 569 l 1
 837 131 l 1
 1143 131 l 1
 1127 0 l 1
 644 0 l 1
 644 123 l 1
 951 566 l 1
 675 566 l 1
 675 693 l 1
 1138 693 l 1
281 574 m 2x9c
 229 574 l 1
 229 119 l 1
 283 119 l 2
 382 119 448 166 448 350 c 0
 448 536 377 574 281 574 c 2x9c
EndSplineSet
EndChar
StartChar: uni01F2
Encoding: 498 498 433
Width: 1097
Flags: W
HStem: 0 120<839 1070> 412 119<677 897 677 1079> 574 119<229 258 258 281 229 229>
VStem: 65 164<119 574 119 693 119 693> 448 170<258 443>
LayerCount: 2
Fore
SplineSet
258 693 m 2
 443 693 618 636 618 350 c 0
 618 71 450 0 273 0 c 2
 65 0 l 1
 65 693 l 1
 258 693 l 2
281 574 m 2
 229 574 l 1
 229 119 l 1
 283 119 l 2
 382 119 448 166 448 350 c 0
 448 536 377 574 281 574 c 2
1079 531 m 1
 1079 420 l 1
 839 120 l 1
 1084 120 l 1
 1070 0 l 1
 656 0 l 1
 656 112 l 1
 897 412 l 1
 677 412 l 1
 677 531 l 1
 1079 531 l 1
EndSplineSet
EndChar
StartChar: uni01F7
Encoding: 503 503 438
Width: 603
Flags: W
HStem: 0 21G<65 229 65 65> 592 101<65 353.5> 592 118<310 439>
VStem: 65 164<0 202 0 317 317 553 650 693> 409 169<469 536>
LayerCount: 2
Fore
SplineSet
387 710 m 0xb8
 491 710 578 636 578 517 c 0
 578 353 455 286 304 230 c 2
 229 202 l 1
 229 0 l 1
 65 0 l 1
 65 693 l 1
 229 693 l 1xd8
 229 650 l 1
 268 689 322 710 387 710 c 0xb8
270 334 m 2
 363 375 409 430 409 508 c 0
 409 564 378 592 329 592 c 0
 291 592 257 578 229 553 c 1
 229 317 l 1
 270 334 l 2
EndSplineSet
EndChar
StartChar: uni01FE
Encoding: 510 510 445
Width: 691
Flags: W
HStem: -17 120<340 392 340 443> -14 21G<296 296> 590 120<299 350.5> 687 20G<395 395>
VStem: 33 172<296.5 434.5 296.5 460> 486 172<259 398>
LayerCount: 2
Fore
SplineSet
484 872 m 1xac
 244 785 l 1
 204 865 l 1
 425 990 l 1
 484 872 l 1xac
514 667 m 1
 606 611 658 501 658 347 c 0
 658 120 541 -17 345 -17 c 0xac
 328 -17 312 -16 296 -14 c 1
 260 -134 l 1
 136 -102 l 1
 176 27 l 1
 84 84 33 194 33 347 c 0
 33 573 150 710 345 710 c 0x6c
 362 710 379 709 395 707 c 1x9c
 432 828 l 1
 555 795 l 1
 514 667 l 1
345 590 m 0
 253 590 205 522 205 347 c 0
 205 246 218 184 243 148 c 1
 375 588 l 1
 366 589 356 590 345 590 c 0
345 103 m 0
 439 103 486 171 486 347 c 0
 486 449 473 511 448 546 c 1
 315 105 l 1
 325 104 335 103 345 103 c 0
EndSplineSet
EndChar
StartChar: uni0204
Encoding: 516 516 451
Width: 526
Flags: W
HStem: 0 118<229 490 229 490> 295 115<229 442 229 442> 576 117<229 473 229 229>
VStem: 65 164<118 295 410 576>
LayerCount: 2
Fore
SplineSet
148 986 m 1
 245 789 l 1
 164 751 l 1
 42 933 l 1
 148 986 l 1
324 986 m 1
 412 789 l 1
 329 756 l 1
 216 936 l 1
 324 986 l 1
490 693 m 1
 473 576 l 1
 229 576 l 1
 229 410 l 1
 442 410 l 1
 442 295 l 1
 229 295 l 1
 229 118 l 1
 490 118 l 1
 490 0 l 1
 65 0 l 1
 65 693 l 1
 490 693 l 1
EndSplineSet
EndChar
StartChar: uni0212
Encoding: 530 530 465
Width: 617
Flags: W
HStem: 0 21G<65 229 65 65 435 620 435 435> 265 113<229 293 229 298> 578 115<229 229 229 288> 841 110<277 323>
VStem: 65 164<0 265 0 378 378 578> 408 169<445.5 515.5>
LayerCount: 2
Fore
SplineSet
300 841 m 0
 254 841 227 812 215 764 c 1
 128 779 l 1
 136 874 195 951 300 951 c 0
 405 951 465 874 473 779 c 1
 386 764 l 1
 373 812 346 841 300 841 c 0
435 0 m 1
 293 265 l 1
 229 265 l 1
 229 0 l 1
 65 0 l 1
 65 693 l 1
 292 693 l 2
 480 693 577 626 577 482 c 0
 577 391 534 336 444 295 c 1
 620 0 l 1
 435 0 l 1
229 578 m 1
 229 378 l 1
 298 378 l 2
 370 378 408 409 408 482 c 0
 408 549 369 578 288 578 c 2
 229 578 l 1
EndSplineSet
EndChar
StartChar: uni0216
Encoding: 534 534 469
Width: 651
Flags: W
HStem: -17 122<288 362.5 288 415.5> 673 20G<55 219 219 219 432 596 596 596> 841 110<302 348>
VStem: 55 164<230 237 237 693> 432 164<237 693>
LayerCount: 2
Fore
SplineSet
325 951 m 0
 430 951 490 874 498 779 c 1
 411 764 l 1
 398 812 371 841 325 841 c 0
 279 841 252 812 240 764 c 1
 153 779 l 1
 161 874 220 951 325 951 c 0
596 693 m 1
 596 230 l 2
 596 90 506 -17 325 -17 c 0
 144 -17 55 84 55 230 c 2
 55 693 l 1
 219 693 l 1
 219 237 l 2
 219 148 251 105 325 105 c 0
 400 105 432 148 432 237 c 2
 432 693 l 1
 596 693 l 1
EndSplineSet
EndChar
StartChar: uni021B
Encoding: 539 539 474
Width: 386
Flags: W
HStem: -210 21G<189 189> -17 21G<251 275> -17 125<268.5 275> 421 110<2 77 2 77 235 340>
VStem: 77 158<175 177 177 421 531 646 646 646> 156 158<-158 -124>
LayerCount: 2
Fore
SplineSet
395 25 m 1xb8
 355 -3 299 -17 251 -17 c 0
 134 -16 77 50 77 175 c 2
 77 421 l 1
 2 421 l 1
 2 531 l 1
 77 531 l 1
 77 646 l 1
 235 664 l 1
 235 531 l 1
 357 531 l 1
 340 421 l 1
 235 421 l 1
 235 177 l 2
 235 126 252 108 285 108 c 0
 303 108 321 113 342 125 c 1
 395 25 l 1xb8
235 -68 m 0xd4
 281 -68 314 -101 314 -145 c 0
 314 -171 306 -191 287 -229 c 2
 241 -325 l 1
 162 -325 l 1
 189 -210 l 1
 170 -195 156 -174 156 -145 c 0
 156 -103 189 -68 235 -68 c 0xd4
EndSplineSet
EndChar
StartChar: uni0221
Encoding: 545 545 480
Width: 783
Flags: W
HStem: -17 116<258 272> -13 21G<549 549> 160 85<643 662.5> 433 115<264.5 276.5 183.5 310.5> 722 20G<533 533> 739 20G<375 375>
VStem: 32 164<200 325.5 200 349> 375 158<194 388 388 388 498 742> 681 110<121 141.5>
LayerCount: 2
Fore
SplineSet
670 245 m 0x7780
 738 245 791 202 791 131 c 0
 791 31 707 -17 599 -17 c 0xb780
 583 -17 566 -16 549 -13 c 1
 518 -84 l 1
 440 -54 l 1
 471 12 l 1x7780
 442 28 417 50 400 82 c 1
 362 21 310 -17 234 -17 c 0
 99 -17 32 95 32 267 c 0
 32 431 115 548 252 548 c 0
 301 548 344 529 375 498 c 1
 375 759 l 1xb780
 533 742 l 1x7b80
 533 190 l 2
 533 173 534 158 537 147 c 1
 568 215 606 245 670 245 c 0x7780
284 99 m 0xb780
 322 99 351 120 377 161 c 1
 376 172 375 183 375 194 c 2
 375 388 l 1
 351 416 328 433 293 433 c 0
 236 433 196 385 196 266 c 0
 196 134 232 99 284 99 c 0xb780
622 97 m 0
 660 97 681 109 681 133 c 0
 681 150 671 160 654 160 c 0
 632 160 619 146 598 98 c 1
 605 97 613 97 622 97 c 0
EndSplineSet
EndChar
StartChar: uni0226
Encoding: 550 550 485
Width: 590
Flags: W
HStem: 0 21G<-13 157 -13 -13 430 604 430 430> 149 119<220 366 220 394 192 366> 574 119<293 293> 673 20G<196 395 395 395> 757 180<267.5 322.5>
VStem: 202 187<821.5 872.5>
LayerCount: 2
Fore
SplineSet
295 757 m 0xdc
 240 757 202 796 202 847 c 0
 202 898 240 937 295 937 c 0
 350 937 389 898 389 847 c 0
 389 796 350 757 295 757 c 0xdc
430 0 m 1
 394 149 l 1
 192 149 l 1
 157 0 l 1
 -13 0 l 1
 196 693 l 1
 395 693 l 1
 604 0 l 1
 430 0 l 1
220 268 m 1
 366 268 l 1
 293 574 l 1xec
 220 268 l 1
EndSplineSet
EndChar
StartChar: uni022A
Encoding: 554 554 489
Width: 691
Flags: W
HStem: -17 120<300 392 300 443> 590 120<299 391.5> 745 159<206.5 251.5 438 483> 940 110<195 500 195 500>
VStem: 33 172<259 434.5 259 460> 148 161<802.5 847> 195 305<940 1050 940 1050> 380 161<802.5 847> 486 172<259 434.5>
LayerCount: 2
Fore
SplineSet
500 940 m 1xd2
 195 940 l 1
 195 1050 l 1
 500 1050 l 1
 500 940 l 1xd2
229 904 m 0xf5
 274 904 309 869 309 825 c 0
 309 780 274 745 229 745 c 0
 184 745 148 780 148 825 c 0
 148 869 184 904 229 904 c 0xf5
460 904 m 0
 506 904 541 869 541 825 c 0
 541 780 506 745 460 745 c 0
 416 745 380 780 380 825 c 0
 380 869 416 904 460 904 c 0
345 710 m 0xd880
 541 710 658 578 658 347 c 0
 658 120 541 -17 345 -17 c 0
 150 -17 33 116 33 347 c 0
 33 573 150 710 345 710 c 0xd880
345 590 m 0
 253 590 205 522 205 347 c 0
 205 171 255 103 345 103 c 0
 439 103 486 171 486 347 c 0
 486 522 438 590 345 590 c 0
EndSplineSet
EndChar
StartChar: uni022B
Encoding: 555 555 490
Width: 584
Flags: W
HStem: -17 116<260 324 260 373> 432 116<260 324> 602 158<152.5 198 384 429.5> 801 109<138 443 138 443>
VStem: 32 164<207 323.5 207 351> 94 162<659 703> 138 305<801 910 801 910> 326 161<659 703> 388 164<207.5 324>
LayerCount: 2
Fore
SplineSet
443 801 m 1xf2
 138 801 l 1
 138 910 l 1
 443 910 l 1
 443 801 l 1xf2
175 760 m 0xf5
 221 760 256 725 256 681 c 0
 256 637 221 602 175 602 c 0
 130 602 94 637 94 681 c 0
 94 725 130 760 175 760 c 0xf5
406 760 m 0
 453 760 487 725 487 681 c 0
 487 637 453 602 406 602 c 0
 362 602 326 637 326 681 c 0
 326 725 362 760 406 760 c 0
292 548 m 0xf880
 454 548 552 444 552 265 c 0
 552 95 454 -17 292 -17 c 0
 131 -17 32 87 32 266 c 0
 32 436 130 548 292 548 c 0xf880
292 432 m 0
 228 432 196 381 196 266 c 0
 196 148 228 99 292 99 c 0
 356 99 388 150 388 265 c 0
 388 383 356 432 292 432 c 0
EndSplineSet
EndChar
StartChar: uni022E
Encoding: 558 558 493
Width: 691
Flags: W
HStem: -17 120<300 392 300 443> 590 120<299 391.5> 757 180<317.5 372.5>
VStem: 33 172<259 434.5 259 460> 252 187<821.5 872.5> 486 172<259 434.5>
LayerCount: 2
Fore
SplineSet
345 937 m 0
 400 937 439 898 439 847 c 0
 439 796 400 757 345 757 c 0
 290 757 252 796 252 847 c 0
 252 898 290 937 345 937 c 0
345 710 m 0
 541 710 658 578 658 347 c 0
 658 120 541 -17 345 -17 c 0
 150 -17 33 116 33 347 c 0
 33 573 150 710 345 710 c 0
345 590 m 0
 253 590 205 522 205 347 c 0
 205 171 255 103 345 103 c 0
 439 103 486 171 486 347 c 0
 486 522 438 590 345 590 c 0
EndSplineSet
EndChar
StartChar: uni022F
Encoding: 559 559 494
Width: 584
Flags: W
HStem: -17 116<260 324 260 373> 432 116<260 324> 631 180<263.5 318.5>
VStem: 32 164<207 323.5 207 351> 198 187<695.5 746.5> 388 164<207.5 324>
LayerCount: 2
Fore
SplineSet
291 811 m 0
 346 811 385 772 385 721 c 0
 385 670 346 631 291 631 c 0
 236 631 198 670 198 721 c 0
 198 772 236 811 291 811 c 0
292 548 m 0xf4
 454 548 552 444 552 265 c 0
 552 95 454 -17 292 -17 c 0
 131 -17 32 87 32 266 c 0
 32 436 130 548 292 548 c 0xf4
292 432 m 0
 228 432 196 381 196 266 c 0
 196 148 228 99 292 99 c 0
 356 99 388 150 388 265 c 0
 388 383 356 432 292 432 c 0
EndSplineSet
EndChar
StartChar: uni0232
Encoding: 562 562 497
Width: 594
Flags: W
HStem: 0 21G<215 379 215 215> 673 20G<-7 172 172 172 428 601 601 601> 781 110<144 449 144 449>
VStem: 144 305<781 891 781 891> 215 164<0 259 259 259>
LayerCount: 2
Fore
SplineSet
449 781 m 1xf0
 144 781 l 1
 144 891 l 1
 449 891 l 1
 449 781 l 1xf0
601 693 m 1
 379 260 l 1
 379 0 l 1
 215 0 l 1
 215 259 l 1xe8
 -7 693 l 1
 172 693 l 1
 300 388 l 1
 428 693 l 1
 601 693 l 1
EndSplineSet
EndChar
StartChar: uni023A
Encoding: 570 570 505
Width: 590
Flags: W
HStem: 0 21G<-13 143 -13 -13 444 604 444 444> 149 112<209 230 181 259 321 377 209 292> 590 103<293 293> 673 20G<196 374 374 374> 722 20G<448 448> 736 20G<391 391>
VStem: -13 617<0 0>
LayerCount: 2
Fore
SplineSet
604 0 m 1xd6
 444 0 l 1
 406 149 l 1
 292 149 l 1
 233 -74 l 1
 175 -61 l 1
 230 149 l 1
 181 149 l 1
 143 0 l 1
 -13 0 l 1
 196 693 l 1
 374 693 l 1
 391 756 l 1xd6
 448 742 l 1xda
 416 623 l 1
 604 0 l 1xd6
209 261 m 1
 259 261 l 1
 320 486 l 1
 293 590 l 1xe6
 209 261 l 1
321 261 m 1
 377 261 l 1
 349 370 l 1
 349 368 l 1
 321 261 l 1
EndSplineSet
EndChar
StartChar: uni023F
Encoding: 575 575 510
Width: 481
Flags: W
HStem: -221 115<347.5 381.5> -17 113 435 113<233.5 278>
VStem: 32 159<381 407 381 431.5> 301 163<128.5 163.5>
LayerCount: 2
Fore
SplineSet
377 -106 m 0
 400 -106 414 -101 429 -95 c 1
 461 -191 l 1
 439 -207 406 -221 357 -221 c 0
 196 -221 179 -62 33 45 c 0
 25 50 16 56 8 62 c 1
 75 148 l 1
 123 115 172 96 226 96 c 0
 272 96 301 112 301 145 c 0
 301 182 285 193 189 220 c 0
 84 250 32 304 32 386 c 0
 32 477 115 548 249 548 c 0
 326 548 395 523 444 483 c 1
 386 394 l 1
 345 420 301 435 255 435 c 0
 212 435 191 419 191 395 c 0
 191 367 205 355 300 327 c 0
 405 297 464 253 464 158 c 0
 464 49 362 -15 242 -17 c 1
 309 -58 318 -106 377 -106 c 0
EndSplineSet
EndChar
StartChar: uni0240
Encoding: 576 576 511
Width: 437
Flags: W
HStem: -221 115<356 408> 0 21G<13 13> 412 119<34 254 34 436>
VStem: 13 474<-191 112 -191 112>
LayerCount: 2
Fore
SplineSet
383 -221 m 0
 194 -221 227 -17 13 0 c 1
 13 112 l 1
 254 412 l 1
 34 412 l 1
 34 531 l 1
 436 531 l 1
 436 420 l 1
 161 86 l 1
 310 33 311 -106 401 -106 c 0
 426 -106 439 -101 455 -95 c 1
 487 -191 l 1
 465 -207 433 -221 383 -221 c 0
EndSplineSet
EndChar
StartChar: uni0241
Encoding: 577 577 512
Width: 509
Flags: W
HStem: 0 21G<147 147 147 311> 591 119<194.5 251>
VStem: 147 164<0 279 0 330 0 330> 319 170<444.5 517.5>
LayerCount: 2
Fore
SplineSet
147 0 m 1
 147 330 l 1xe0
 202 345 l 2
 282 368 319 404 319 485 c 0
 319 550 283 591 219 591 c 0
 170 591 129 573 83 535 c 1
 4 618 l 1
 69 679 146 710 241 710 c 0
 395 710 489 622 489 493 c 0xf0
 489 376 429 323 336 288 c 2
 311 279 l 1
 311 0 l 1
 147 0 l 1
EndSplineSet
EndChar
StartChar: uni0243
Encoding: 579 579 514
Width: 631
Flags: W
HStem: 0 119<243 303> 175 80<14 79 14 79 243 358> 307 109<243 304 304 316 243 304> 577 116<243 276 276 291 243 243>
VStem: 79 164<119 175 119 175 119 175 255 307 416 577> 409 167<472 529> 435 170<173 246>
LayerCount: 2
Fore
SplineSet
448 367 m 1xfa
 526 352 605 314 605 202 c 0xfa
 605 44 477 0 303 0 c 2
 79 0 l 1
 79 175 l 1
 14 175 l 1
 14 255 l 1
 79 255 l 1
 79 693 l 1
 276 693 l 2
 461 693 576 646 576 516 c 0xfc
 576 428 512 382 448 367 c 1xfa
291 577 m 2
 243 577 l 1
 243 416 l 1
 304 416 l 2
 372 416 409 442 409 500 c 0xfc
 409 558 371 577 291 577 c 2
304 119 m 2xfa
 381 119 435 135 435 211 c 0
 435 281 387 307 316 307 c 2
 243 307 l 1
 243 255 l 1
 358 255 l 1
 358 175 l 1
 243 175 l 1
 243 119 l 1
 304 119 l 2xfa
EndSplineSet
EndChar
StartChar: uni0244
Encoding: 580 580 515
Width: 681
Flags: W
HStem: -17 122<303 377.5 303 430.5> 500 92<13 70 13 70 234 447 612 668> 500 193<13 234 13 234 70 234 70 447>
VStem: 70 164<230 237 237 500 592 693> 447 165<237 500 592 693>
LayerCount: 2
Fore
SplineSet
668 592 m 1xd8
 668 500 l 1
 612 500 l 1
 612 230 l 2
 612 90 521 -17 340 -17 c 0
 159 -17 70 84 70 230 c 2
 70 500 l 1
 13 500 l 1xb8
 13 592 l 1
 70 592 l 1xd8
 70 693 l 1
 234 693 l 1xb8
 234 592 l 1
 447 592 l 1xd8
 447 693 l 1
 612 693 l 1xb8
 612 592 l 1
 668 592 l 1xd8
447 237 m 2
 447 500 l 1
 234 500 l 1
 234 237 l 2
 234 148 266 105 340 105 c 0
 415 105 447 148 447 237 c 2
EndSplineSet
EndChar
StartChar: uni0248
Encoding: 584 584 519
Width: 337
Flags: W
HStem: 282 122<14 92 14 92 256 333> 673 20G<92 256 256 256>
VStem: 92 164<111 282 404 693>
LayerCount: 2
Fore
SplineSet
333 404 m 1
 333 282 l 1
 256 282 l 1
 256 105 l 2
 256 -70 150 -131 33 -169 c 1
 -11 -53 l 1
 79 -18 92 29 92 111 c 2
 92 282 l 1
 14 282 l 1
 14 404 l 1
 92 404 l 1
 92 693 l 1
 256 693 l 1
 256 404 l 1
 333 404 l 1
EndSplineSet
EndChar
StartChar: uni0249
Encoding: 585 585 520
Width: 330
Flags: W
HStem: -221 21G<31 31> 185 122<6 86 6 86 244 325> 511 20G<86 244 244 244> 631 180<137.5 192.5>
VStem: 72 187<695.5 746.5> 86 158<50 60 60 185 -26.5 185 307 531>
LayerCount: 2
Fore
SplineSet
165 631 m 0xf8
 110 631 72 670 72 721 c 0
 72 772 110 811 165 811 c 0
 220 811 259 772 259 721 c 0
 259 670 220 631 165 631 c 0xf8
325 307 m 1xe4
 325 185 l 1
 244 185 l 1
 244 60 l 2
 244 -113 155 -176 31 -221 c 1
 -22 -106 l 1
 46 -75 86 -47 86 50 c 2
 86 185 l 1
 6 185 l 1
 6 307 l 1
 86 307 l 1
 86 531 l 1
 244 531 l 1
 244 307 l 1
 325 307 l 1xe4
EndSplineSet
EndChar
StartChar: uni024E
Encoding: 590 590 525
Width: 594
Flags: W
HStem: 0 21G<215 380 215 215> 523 92<-6 33 -6 80 -6 33 238 363 238 238 562 602> 523 170<-6 80 -6 -6 -7 363 -7 238 515 602 515 515>
VStem: 215 165<0 259 259 259>
LayerCount: 2
Fore
SplineSet
602 693 m 1xb0
 562 615 l 1
 602 615 l 1xd0
 602 523 l 1
 515 523 l 1
 380 260 l 1
 380 0 l 1
 215 0 l 1
 215 259 l 1
 80 523 l 1
 -6 523 l 1xb0
 -6 615 l 1
 33 615 l 1xd0
 -7 693 l 1
 167 693 l 1xb0
 200 615 l 1
 402 615 l 1xd0
 435 693 l 1
 602 693 l 1xb0
238 523 m 1xb0
 300 375 l 1
 363 523 l 1
 238 523 l 1xb0
EndSplineSet
EndChar
StartChar: uni024F
Encoding: 591 591 526
Width: 541
Flags: W
HStem: -222 21G<67 67> 0 21G<167 221 167 167> 304 90<6 48 6 75 6 48 223 223 223 317 491 533> 304 227<6 75 6 173 6 223 6 317 463 533 463 463>
VStem: 6 529<304 531 394 531 531 531>
LayerCount: 2
Fore
SplineSet
535 531 m 1xd8
 491 394 l 1
 533 394 l 1xe8
 533 304 l 1
 463 304 l 1
 366 -1 l 2
 324 -135 234 -213 67 -222 c 1
 50 -111 l 1
 154 -98 192 -68 221 0 c 1
 167 0 l 1
 75 304 l 1
 6 304 l 1xd8
 6 394 l 1
 48 394 l 1xe8
 6 531 l 1
 173 531 l 1xd8
 203 394 l 1
 339 394 l 1xe8
 372 531 l 1
 535 531 l 1xd8
268 101 m 1
 317 304 l 1
 223 304 l 1xd8
 268 101 l 1
EndSplineSet
EndChar
StartChar: uni0394
Encoding: 916 916 530
Width: 599
Flags: W
HStem: 0 120<184 411 184 612> 572 121<298 298> 673 20G<201 399 399 399>
VStem: -13 625<0 0>
LayerCount: 2
Fore
SplineSet
399 693 m 1xb0
 612 0 l 1
 -13 0 l 1
 201 693 l 1
 399 693 l 1xb0
298 572 m 1xd0
 184 120 l 1
 411 120 l 1
 298 572 l 1xd0
EndSplineSet
EndChar
StartChar: uni03B3
Encoding: 947 947 553
Width: 508
Flags: W
HStem: -223 21G<185 185> -207 21G<311 311> 527 20G<357 357> 528 20G<126 126>
VStem: 152.62 147.98
LayerCount: 2
Fore
SplineSet
126 548 m 1x58
 173 492 224 372 254 160 c 1
 357 547 l 1
 513 513 l 1
 329 28 l 2
 298 -53 293 -108 311 -207 c 1x68
 185 -223 l 1x98
 144 -141 142 -81 178 12 c 1
 118 248 47 418 -17 498 c 1
 126 548 l 1x58
EndSplineSet
EndChar
StartChar: uni03B6
Encoding: 950 950 556
Width: 419
Flags: W
HStem: -222 21G<253 253> 628 114<49 171 32 424> 658 84<49 444>
VStem: 21 164<222.5 312 222.5 317.5> 272 162<-64 -31>
LayerCount: 2
Fore
SplineSet
424 742 m 1xd8
 444 658 l 1xb8
 237 484 185 364 185 260 c 0
 185 185 216 155 302 120 c 0
 382 86 434 53 434 -30 c 0
 434 -114 376 -170 253 -222 c 1
 194 -128 l 1
 240 -103 272 -82 272 -46 c 0
 272 -16 258 -3 191 26 c 0
 73 78 21 128 21 255 c 0
 21 380 119 530 306 647 c 1
 279 637 223 628 171 628 c 2
 32 628 l 1
 49 742 l 1
 424 742 l 1xd8
EndSplineSet
EndChar
StartChar: uni03B7
Encoding: 951 951 557
Width: 577
Flags: W
HStem: -222 21G<523 523> -205 21G<365 365> 0 21G<67 225 67 67> 432 116<297.5 421> 525 20G
VStem: 67 158<0 368 0 382 0 410.5> 365 158<-205 361 361 385 -222 388.5>
LayerCount: 2
Fore
SplineSet
375 548 m 0x76
 467 548 523 489 523 385 c 2
 523 -222 l 1xae
 365 -205 l 1
 365 361 l 2
 365 416 345 432 315 432 c 0
 280 432 252 409 225 368 c 1x76
 225 0 l 1
 67 0 l 1
 67 382 l 2
 67 439 58 485 45 525 c 1
 191 545 l 1x6e
 200 527 208 505 215 469 c 1
 259 521 310 548 375 548 c 0x76
EndSplineSet
EndChar
StartChar: uni03B9
Encoding: 953 953 559
Width: 279
Flags: W
HStem: -17 21G<209 209> 511 20G<54 212 212 212>
VStem: 54 158<159 179 179 531>
LayerCount: 2
Fore
SplineSet
212 531 m 1
 212 179 l 2
 212 131 223 112 255 97 c 1
 209 -17 l 1
 109 1 54 50 54 159 c 2
 54 531 l 1
 212 531 l 1
EndSplineSet
EndChar
StartChar: uni03D7
Encoding: 983 983 581
Width: 571
Flags: W
HStem: -227 115<326 363.5 326 413.5> -11 21G<188 188> 522 20G<382 382> 528 20G<70 70>
VStem: 67 146<27 434.5 354 375> 357 146<153 177> 408 139<-71.5 -50>
LayerCount: 2
Fore
SplineSet
503 179 m 2xec
 503 127 513 106 547 89 c 1
 547 -37 l 2
 547 -164 473 -227 354 -227 c 0
 290 -227 240 -208 209 -185 c 1
 262 -91 l 1
 287 -104 308 -112 344 -112 c 0
 383 -112 408 -93 408 -50 c 2xda
 409 30 l 1
 375 53 357 89 357 144 c 0
 357 210 390 346 411 405 c 1
 188 -11 l 1
 67 27 l 1
 67 352 l 2
 67 398 58 417 24 433 c 1
 70 548 l 1xdc
 159 529 213 482 213 387 c 0
 213 321 180 185 160 126 c 1
 382 542 l 1
 503 504 l 1
 503 179 l 2xec
EndSplineSet
EndChar
StartChar: uni210A
Encoding: 8458 8458 588
Width: 587
Flags: W
HStem: -222 116<223 292.5 223 348> 3 116<254.5 265> 433 115<256.5 271 178.5 302.5> 511 20G<392 529 529 529>
VStem: 29 163<215 330.5 215 354> 371 158<1 20 20 68 68 68 177 388 388 388>
LayerCount: 2
Fore
SplineSet
392 531 m 1xdc
 529 531 l 1xdc
 529 20 l 2
 529 -143 431 -222 265 -222 c 0
 171 -222 100 -194 60 -170 c 1
 108 -72 l 1
 142 -90 195 -106 251 -106 c 0
 334 -106 371 -74 371 1 c 2
 371 68 l 1
 341 31 297 3 233 3 c 0
 97 3 29 115 29 277 c 0
 29 431 115 548 242 548 c 0
 300 548 346 526 383 485 c 1xec
 392 531 l 1xdc
281 119 m 0
 317 119 346 138 371 177 c 1
 371 388 l 1
 347 416 320 433 285 433 c 0xec
 228 433 192 385 192 276 c 0
 192 154 228 119 281 119 c 0
EndSplineSet
EndChar
StartChar: uni2113
Encoding: 8467 8467 590
Width: 470
Flags: W
HStem: -17 125<210 301> 682 77<298.5 323.5>
VStem: 110 158<135 141 141 218 218 218 293 326 426 559 559 614> 351 105<622 622>
LayerCount: 2
Fore
SplineSet
296 108 m 0
 306 108 315 110 321 113 c 1
 352 1 l 1
 329 -9 294 -17 256 -17 c 0
 164 -17 110 38 110 135 c 2
 110 218 l 1
 46 177 l 1
 14 228 l 1
 110 293 l 1
 110 559 l 2
 110 701 193 759 302 759 c 0
 400 759 456 708 456 622 c 0
 456 518 384 420 268 326 c 1
 268 141 l 2
 268 119 276 108 296 108 c 0
311 682 m 0
 286 682 268 663 268 614 c 2
 268 426 l 1
 328 492 352 554 351 622 c 0
 350 664 336 682 311 682 c 0
EndSplineSet
EndChar
StartChar: uni2136
Encoding: 8502 8502 596
Width: 523
Flags: W
HStem: 0 131<37 292 445 509 18 292> 438 130<38 228 38 264>
VStem: 292 153<131 364 364 369>
LayerCount: 2
Fore
SplineSet
445 131 m 1
 509 131 l 1
 509 0 l 1
 18 0 l 1
 37 131 l 1
 292 131 l 1
 292 364 l 2
 292 414 280 438 228 438 c 2
 38 438 l 1
 38 568 l 1
 264 568 l 2
 403 568 445 499 445 369 c 2
 445 131 l 1
EndSplineSet
EndChar
StartChar: uniFB01
Encoding: 64257 64257 940
Width: 598
Flags: W
HStem: 0 21G<84 242 84 84 379 537 379 379> 421 110<3 84 3 84 242 379> 642 117<291.5 342 226 344>
VStem: 84 158<0 421 0 421 531 571 0 577 0 628> 379 158<0 421 421 421>
LayerCount: 2
Fore
SplineSet
305 759 m 0
 379 759 438 740 481 719 c 1
 437 618 l 1
 405 631 365 642 323 642 c 0
 260 642 242 622 242 571 c 2
 242 531 l 1
 537 531 l 1
 537 0 l 1
 379 0 l 1
 379 421 l 1
 242 421 l 1
 242 0 l 1
 84 0 l 1
 84 421 l 1
 3 421 l 1
 3 531 l 1
 84 531 l 1
 84 577 l 2
 84 679 147 759 305 759 c 0
EndSplineSet
EndChar
StartChar: u1D400
Encoding: 119808 119808 600
Width: 607
Flags: W
HStem: 0 21G<-32 210 -32 -32 395 639 395 395> 126 160<258 345 258 373 231 345> 539 159<301 301> 678 20G<167 441 441 441>
VStem: -32 671<0 0>
LayerCount: 2
Fore
SplineSet
395 0 m 1xd8
 373 126 l 1
 231 126 l 1
 210 0 l 1
 -32 0 l 1
 167 698 l 1
 441 698 l 1
 639 0 l 1
 395 0 l 1xd8
258 286 m 1
 345 286 l 1
 301 539 l 1xe8
 258 286 l 1
EndSplineSet
EndChar
StartChar: u1D404
Encoding: 119812 119812 604
Width: 517
Flags: W
HStem: 0 159<261 498 261 498> 278 153<261 456 261 456> 539 159<261 483 261 261>
VStem: 30 231<159 278 431 539>
LayerCount: 2
Fore
SplineSet
506 698 m 1
 483 539 l 1
 261 539 l 1
 261 431 l 1
 456 431 l 1
 456 278 l 1
 261 278 l 1
 261 159 l 1
 498 159 l 1
 498 0 l 1
 30 0 l 1
 30 698 l 1
 506 698 l 1
EndSplineSet
EndChar
StartChar: u1D408
Encoding: 119816 119816 608
Width: 291
Flags: W
HStem: 0 21G<30 261 30 30> 678 20G<30 261 261 261>
VStem: 30 231<0 698 0 698>
LayerCount: 2
Fore
SplineSet
261 698 m 1
 261 0 l 1
 30 0 l 1
 30 698 l 1
 261 698 l 1
EndSplineSet
EndChar
StartChar: u1D40B
Encoding: 119819 119819 611
Width: 527
Flags: W
HStem: 0 175<261 496> 678 20G<30 261 261 261>
VStem: 30 231<175 698 175 698 175 698>
LayerCount: 2
Fore
SplineSet
261 698 m 1
 261 175 l 1
 520 175 l 1
 496 0 l 1
 30 0 l 1
 30 698 l 1
 261 698 l 1
EndSplineSet
EndChar
StartChar: u1D411
Encoding: 119825 119825 617
Width: 628
Flags: W
HStem: 0 21G<30 261 30 30 404 658 404 404> 238 153<261 284 261 306> 541 157<261 261 261 296>
VStem: 30 231<0 238 0 391 391 541> 375 234<444 495>
LayerCount: 2
Fore
SplineSet
404 0 m 1
 284 238 l 1
 261 238 l 1
 261 0 l 1
 30 0 l 1
 30 698 l 1
 302 698 l 2
 507 698 609 629 609 471 c 0
 609 385 574 334 493 280 c 1
 658 0 l 1
 404 0 l 1
261 541 m 1
 261 391 l 1
 306 391 l 2
 353 391 375 417 375 471 c 0
 375 519 345 541 296 541 c 2
 261 541 l 1
EndSplineSet
EndChar
StartChar: u1D415
Encoding: 119829 119829 621
Width: 584
Flags: W
HStem: 0 21G<147 450 147 147> 0 152<302 302 302 450> 678 20G<-32 211 211 211 379 616 616 616>
VStem: -32 648<698 698>
LayerCount: 2
Fore
SplineSet
616 698 m 1xb0
 450 0 l 1
 147 0 l 1
 -32 698 l 1
 211 698 l 1
 302 152 l 1x70
 379 698 l 1
 616 698 l 1xb0
EndSplineSet
EndChar
StartChar: u1D41A
Encoding: 119834 119834 626
Width: 553
Flags: W
HStem: -22 155<132.5 265> -17 21G<501 501> 223 113<272 290 290 300> 403 154<233 259>
VStem: 8 215<161.5 190.5 161.5 210.5> 300 216<166 184 184 223 223 223 336 343 343 355 166 367.5>
LayerCount: 2
Fore
SplineSet
516 184 m 2x7c
 516 148 522 133 546 124 c 1
 501 -17 l 1x7c
 429 -13 381 5 348 56 c 1
 308 -4 247 -22 186 -22 c 0xbc
 79 -22 8 51 8 151 c 0
 8 270 99 336 272 336 c 2
 300 336 l 1
 300 343 l 2
 300 392 287 403 231 403 c 0
 202 403 147 393 94 375 c 1
 46 514 l 1
 114 542 202 557 264 557 c 0
 444 557 516 492 516 355 c 2
 516 184 l 2x7c
256 133 m 0xbc
 274 133 291 143 300 155 c 1
 300 223 l 1
 290 223 l 2
 244 223 223 208 223 173 c 0
 223 150 237 133 256 133 c 0xbc
EndSplineSet
EndChar
StartChar: u1D41C
Encoding: 119836 119836 628
Width: 479
Flags: W
HStem: -22 170<294 331 294 345> 392 165<292 332.5>
VStem: 8 230<213 314 213 348.5>
LayerCount: 2
Fore
SplineSet
297 557 m 0
 383 557 447 529 498 483 c 1
 408 355 l 1
 377 381 347 392 318 392 c 0
 266 392 238 365 238 263 c 0
 238 163 272 148 316 148 c 0
 346 148 367 158 404 181 c 1
 498 46 l 1
 449 6 387 -22 303 -22 c 0
 119 -22 8 98 8 264 c 0
 8 433 122 557 297 557 c 0
EndSplineSet
EndChar
StartChar: u1D41D
Encoding: 119837 119837 629
Width: 602
Flags: W
HStem: -22 158<146 305.5> 0 21G<374 572 374 374> 0 136<282.5 572 282.5 374> 401 156<173.5 315> 537 20G<173.5 263.5> 725 20G<572 572>
VStem: 13 226<206.5 320 206.5 355.5> 350 222<174 379 379 379 521 745 0 767 0 767>
LayerCount: 2
Fore
SplineSet
350 767 m 1x4f
 572 745 l 1
 572 0 l 1
 374 0 l 1x4f
 367 52 l 1
 341 17 296 -22 217 -22 c 0x8f
 75 -22 13 93 13 272 c 0
 13 439 101 557 246 557 c 0
 281 557 321 545 350 521 c 1
 350 767 l 1x4f
297 136 m 0x37
 314 136 334 147 350 174 c 1
 350 379 l 1
 336 393 324 401 306 401 c 0
 270 401 239 371 239 269 c 0
 239 144 268 136 297 136 c 0x37
EndSplineSet
EndChar
StartChar: u1D429
Encoding: 119849 119849 641
Width: 600
Flags: W
HStem: -208 21G<252 252> -22 156<289 436> 400 136<30 319.5> 516 20G<30 228 228 228> 537 20G<361.5 451>
VStem: 30 222<-208 30 -208 165 165 358> 361 226<215.5 330>
LayerCount: 2
Fore
SplineSet
381 557 m 0xce
 521 557 587 448 587 270 c 0
 587 103 499 -22 373 -22 c 0
 324 -22 284 -5 252 30 c 1
 252 -208 l 1
 30 -230 l 1
 30 536 l 1
 228 536 l 1xd6
 236 488 l 1
 284 544 342 557 381 557 c 0xce
298 134 m 0
 333 134 361 165 361 266 c 0
 361 394 335 400 304 400 c 0
 290 400 270 391 252 358 c 1xe6
 252 165 l 1
 267 142 280 134 298 134 c 0
EndSplineSet
EndChar
StartChar: u1D42C
Encoding: 119852 119852 644
Width: 499
Flags: W
HStem: -22 150<202 239.5 202 310> 406 151<255.5 290>
VStem: -12 507<67 217> 17 219<386 396 386 427.5>
LayerCount: 2
Fore
SplineSet
260 557 m 0xe0
 340 557 422 529 471 486 c 1
 394 368 l 1
 358 391 311 406 269 406 c 0
 242 406 236 400 236 392 c 0
 236 380 237 374 342 341 c 0
 440 310 495 266 495 168 c 0
 495 58 389 -22 231 -22 c 0
 136 -22 45 12 -12 67 c 1
 92 182 l 1
 129 152 178 128 226 128 c 0
 253 128 269 135 269 151 c 0
 269 171 261 172 171 201 c 0
 75 231 17 289 17 378 c 0xd0
 17 477 101 557 260 557 c 0xe0
EndSplineSet
EndChar
StartChar: u1D42D
Encoding: 119853 119853 645
Width: 410
Flags: W
HStem: -22 173<259 319> 387 149<-4 53 -4 53 275 372>
VStem: 53 222<210 212 212 387 187.5 387 536 646 646 646>
LayerCount: 2
Fore
SplineSet
358 163 m 1
 428 26 l 1
 382 -6 310 -22 259 -22 c 0
 115 -21 53 60 53 210 c 2
 53 387 l 1
 -4 387 l 1
 -4 536 l 1
 53 536 l 1
 53 646 l 1
 275 672 l 1
 275 536 l 1
 394 536 l 1
 372 387 l 1
 275 387 l 1
 275 212 l 2
 275 163 292 151 312 151 c 0
 326 151 342 154 358 163 c 1
EndSplineSet
EndChar
StartChar: u1D42F
Encoding: 119855 119855 647
Width: 534
Flags: W
HStem: 0 21G<138 400 138 138> 0 157<271 271 271 400 138 271> 516 20G<-21 220 220 220 331 554 554 554>
VStem: -21 575<536 536>
LayerCount: 2
Fore
SplineSet
554 536 m 1xb0
 400 0 l 1
 138 0 l 1
 -21 536 l 1
 220 536 l 1
 271 157 l 1x70
 331 536 l 1
 554 536 l 1xb0
EndSplineSet
EndChar
StartChar: u1D430
Encoding: 119856 119856 648
Width: 780
Flags: W
HStem: 0 21G<93 342 93 93 439 689 439 439> 0 171<232 232 232 342 93 232> 516 20G<-11 214 214 214 294 497 497 497 577 790 790 790>
VStem: -11 801<536 536>
LayerCount: 2
Fore
SplineSet
790 536 m 1xb0
 689 0 l 1
 439 0 l 1
 388 339 l 1
 342 0 l 1
 93 0 l 1
 -11 536 l 1
 214 536 l 1
 232 171 l 1
 294 536 l 1
 497 536 l 1
 544 171 l 1x70
 577 536 l 1
 790 536 l 1xb0
EndSplineSet
EndChar
StartChar: u1D431
Encoding: 119857 119857 649
Width: 538
Flags: W
HStem: 0 21G<-26 212 -26 -26 317 563 317 317> 516 20G<-13 231 231 231 302 533 533 533>
VStem: -26 589<0 0>
LayerCount: 2
Fore
SplineSet
402 287 m 1
 563 0 l 1
 317 0 l 1
 261 175 l 1
 212 0 l 1
 -26 0 l 1
 133 280 l 1
 -13 536 l 1
 231 536 l 1
 270 387 l 1
 302 536 l 1
 533 536 l 1
 402 287 l 1
EndSplineSet
EndChar
StartChar: u1D437
Encoding: 119863 119863 655
Width: 642
Flags: W
HStem: 0 118<205 234> 574 119<269 312 312 322 269 269>
VStem: 461 165<362.5 489.5>
LayerCount: 2
Fore
SplineSet
312 693 m 2
 477 693 626 644 626 430 c 0
 626 205 530 0 234 0 c 2
 27 0 l 1
 124 693 l 1
 312 693 l 2
322 574 m 2
 269 574 l 1
 205 118 l 1
 258 118 l 2
 421 118 461 295 461 430 c 0
 461 549 402 574 322 574 c 2
EndSplineSet
EndChar
StartChar: u1D43B
Encoding: 119867 119867 659
Width: 656
Flags: W
HStem: 0 21G<27 188 27 27 393 393 393 554> 297 128<247 434 230 452> 673 20G<124 285 285 285 490 651 651 651>
VStem: 27 624
LayerCount: 2
Fore
SplineSet
188 0 m 1
 27 0 l 1
 124 693 l 1
 285 693 l 1
 247 425 l 1
 452 425 l 1
 490 693 l 1
 651 693 l 1
 554 0 l 1
 393 0 l 1
 434 297 l 1
 230 297 l 1
 188 0 l 1
EndSplineSet
EndChar
StartChar: u1D449
Encoding: 119881 119881 673
Width: 561
Flags: W
HStem: 0 21G<147 347 147 147> 0 128<265 265 265 347 147 265> 673 20G<46 215 215 215 467 634 634 634>
VStem: 46 588<693 693>
LayerCount: 2
Fore
SplineSet
634 693 m 1xb0
 347 0 l 1
 147 0 l 1
 46 693 l 1
 215 693 l 1
 265 128 l 1x70
 467 693 l 1
 634 693 l 1xb0
EndSplineSet
EndChar
StartChar: u1D44E
Encoding: 119886 119886 678
Width: 572
Flags: W
HStem: -17 116<229.5 233.5> -14 21G<479 479> 436 112<274.5 337.5>
VStem: 26 161<157.5 246.5 157.5 270>
LayerCount: 2
Fore
SplineSet
330 548 m 0x70
 403 548 478 530 547 492 c 1
 498 152 l 2
 494 117 495 99 524 88 c 1
 479 -14 l 1x70
 421 -9 372 17 356 74 c 1
 319 21 269 -17 198 -17 c 0xb0
 86 -17 26 66 26 194 c 0
 26 346 106 548 330 548 c 0x70
326 436 m 0
 223 436 187 298 187 195 c 0
 187 120 212 99 247 99 c 0
 285 99 318 127 348 173 c 1xb0
 385 426 l 1
 365 433 349 436 326 436 c 0
EndSplineSet
EndChar
StartChar: u1D45F
Encoding: 119903 119903 694
Width: 391
Flags: W
HStem: 0 21G<23 178 23 23> 393 138<97 351.5> 511 20G<97 231 231 231> 518 20G<433 433> 526 20G<351 390.5>
VStem: 23 410
LayerCount: 2
Fore
SplineSet
380 546 m 0x8c
 401 546 416 543 433 538 c 1x94
 388 386 l 1
 372 390 360 393 343 393 c 0xc4
 278 393 242 330 213 246 c 1
 178 0 l 1
 23 0 l 1
 97 531 l 1
 231 531 l 1xa4
 230 432 l 1
 267 507 322 546 380 546 c 0x8c
EndSplineSet
EndChar
StartChar: u1D462
Encoding: 119906 119906 697
Width: 558
Flags: W
HStem: -17 21G<113 195.5> -17 125<113 249.5> 0 21G<327 461 327 327> 511 20G<90 245 245 245 380 535 535 535>
VStem: 33.37 161.63 33.37 501.63
LayerCount: 2
Fore
SplineSet
162 -17 m 0x98
 64 -17 22 49 36 152 c 2
 90 531 l 1
 245 531 l 1
 195 177 l 2
 188 124 203 108 231 108 c 0
 268 108 304 148 333 192 c 1x58
 380 531 l 1
 535 531 l 1
 461 0 l 1
 327 0 l 1x34
 330 78 l 1
 285 21 229 -17 162 -17 c 0x98
EndSplineSet
EndChar
StartChar: u1D464
Encoding: 119908 119908 699
Width: 739
Flags: W
HStem: 0 118<197 197 197 266 81 197> 391 140<390 390> 511 20G<44 200 200 200 336 487 487 487 622 771 771 771>
VStem: 397.5 96.5
LayerCount: 2
Fore
SplineSet
771 531 m 1xb0
 589 0 l 1
 405 0 l 1
 390 391 l 1xd0
 266 0 l 1
 81 0 l 1
 44 531 l 1
 200 531 l 1
 197 118 l 1
 336 531 l 1
 487 531 l 1
 501 118 l 1
 622 531 l 1
 771 531 l 1xb0
EndSplineSet
EndChar
StartChar: u1D46A
Encoding: 119914 119914 705
Width: 575
Flags: W
HStem: -22 172<312.5 356.5> 556 163<339.5 420>
VStem: 17 234<234.5 322.5 234.5 368.5>
LayerCount: 2
Fore
SplineSet
395 719 m 0
 495 719 571 686 621 625 c 1
 500 508 l 1
 473 537 443 556 397 556 c 0
 282 556 251 368 251 277 c 0
 251 192 282 150 343 150 c 0
 388 150 427 176 472 209 c 1
 553 79 l 1
 493 25 405 -22 308 -22 c 0
 126 -22 17 80 17 270 c 0
 17 467 115 719 395 719 c 0
EndSplineSet
EndChar
StartChar: u1D46D
Encoding: 119917 119917 708
Width: 473
Flags: W
HStem: 0 21G<-7 220 -7 -7> 248 158<276 432 254 454> 539 159<295 495 295 295>
VStem: -7 548
LayerCount: 2
Fore
SplineSet
541 698 m 1
 495 539 l 1
 295 539 l 1
 276 406 l 1
 454 406 l 1
 432 248 l 1
 254 248 l 1
 220 0 l 1
 -7 0 l 1
 90 698 l 1
 541 698 l 1
EndSplineSet
EndChar
StartChar: u1D470
Encoding: 119920 119920 711
Width: 287
Flags: W
HStem: 0 21G<-7 220 -7 -7> 678 20G<90 317 317 317>
VStem: -7 324
LayerCount: 2
Fore
SplineSet
317 698 m 1
 220 0 l 1
 -7 0 l 1
 90 698 l 1
 317 698 l 1
EndSplineSet
EndChar
StartChar: u1D47C
Encoding: 119932 119932 723
Width: 627
Flags: W
HStem: -22 164<269 319 269 375> 678 20G<80 307 307 307 440 666 666 666>
VStem: 13.51 226.2
LayerCount: 2
Fore
SplineSet
666 698 m 1
 603 239 l 2
 583 96 475 -22 275 -22 c 0
 74 -22 -5 85 17 240 c 2
 80 698 l 1
 307 698 l 1
 243 245 l 2
 233 174 244 142 294 142 c 0
 344 142 366 176 376 246 c 2
 440 698 l 1
 666 698 l 1
EndSplineSet
EndChar
StartChar: u1D480
Encoding: 119936 119936 727
Width: 622
Flags: W
HStem: 0 21G<161 387 161 161> 678 20G<40 284 284 284 460 702 702 702>
VStem: 40 662<698 698>
LayerCount: 2
Fore
SplineSet
702 698 m 1
 423 255 l 1
 387 0 l 1
 161 0 l 1
 197 254 l 1
 40 698 l 1
 284 698 l 1
 335 426 l 1
 460 698 l 1
 702 698 l 1
EndSplineSet
EndChar
StartChar: u1D486
Encoding: 119942 119942 733
Width: 548
Flags: W
HStem: -22 154<274 310> 190 121 421 136<283.5 318.5>
VStem: 341 216<385.5 398>
LayerCount: 2
Fore
SplineSet
557 400 m 0
 557 252 369 203 219 190 c 1
 225 145 255 132 293 132 c 0
 336 132 372 150 423 181 c 1
 496 57 l 1
 437 13 357 -22 263 -22 c 0
 82 -22 3 76 3 213 c 0
 3 358 87 557 333 557 c 0
 478 557 557 491 557 400 c 0
228 311 m 1
 342 315 341 385 341 386 c 0
 341 410 332 421 305 421 c 0
 262 421 239 368 228 311 c 1
EndSplineSet
EndChar
StartChar: u1D487
Encoding: 119943 119943 734
Width: 363
Flags: W
HStem: 387 149<30 75 10 95 314 390> 610 157<360.5 387> 698 20G<525 525>
VStem: -97 622
LayerCount: 2
Fore
SplineSet
377 610 m 0xd0
 344 610 322 594 315 544 c 2
 314 536 l 1
 434 536 l 1
 390 387 l 1
 293 387 l 1
 251 87 l 2
 224 -110 93 -189 -46 -230 c 1
 -97 -73 l 1
 -18 -47 21 -7 32 74 c 2
 75 387 l 1
 10 387 l 1
 30 536 l 1
 95 536 l 1
 98 558 l 2
 114 674 200 767 355 767 c 0xd0
 430 767 492 742 525 718 c 1xb0
 452 591 l 1
 427 605 397 610 377 610 c 0xd0
EndSplineSet
EndChar
StartChar: u1D489
Encoding: 119945 119945 736
Width: 554
Flags: W
HStem: 0 21G<-9 208 -9 -9 276 493 276 276> 537 20G<404 476.5>
VStem: 323 228.48
LayerCount: 2
Fore
SplineSet
436 557 m 0
 517 557 563 500 549 398 c 2
 493 0 l 1
 276 0 l 1
 323 335 l 2
 328 370 323 377 315 377 c 0
 302 377 281 344 247 269 c 1
 208 0 l 1
 -9 0 l 1
 95 745 l 1
 314 768 l 1
 272 456 l 1
 304 516 372 557 436 557 c 0
EndSplineSet
EndChar
StartChar: u1D48A
Encoding: 119946 119946 737
Width: 275
Flags: W
HStem: 0 21G<-8 209 -8 -8> 516 20G<66 283 283 283> 608 232<182.5 221.5>
VStem: -8 329.98
LayerCount: 2
Fore
SplineSet
217 840 m 0
 287 840 330 789 321 722 c 0
 313 658 256 608 187 608 c 0
 116 608 74 659 83 727 c 0
 91 790 148 840 217 840 c 0
283 536 m 1
 209 0 l 1
 -8 0 l 1
 66 536 l 1
 283 536 l 1
EndSplineSet
EndChar
StartChar: u1D491
Encoding: 119953 119953 744
Width: 589
Flags: W
HStem: -229 21G -22 157<271.5 303.5 261.5 406> -8 21G<207 207> 400 136<66 333> 516 20G<66 261 261 261> 537 20G<394 473>
VStem: 359 223<296.5 365.5>
LayerCount: 2
Fore
SplineSet
415 557 m 0xa6
 531 557 582 481 582 350 c 0
 582 193 514 -22 298 -22 c 0xc6
 245 -22 218 -13 207 -8 c 1
 177 -208 l 1
 -40 -229 l 1
 66 536 l 1
 261 536 l 1xaa
 262 484 l 1
 315 537 373 557 415 557 c 0xa6
324 400 m 0xd2
 304 400 281 389 259 353 c 1
 229 143 l 1
 237 140 253 135 270 135 c 0
 337 135 359 255 359 338 c 0
 359 393 342 400 324 400 c 0xd2
EndSplineSet
EndChar
StartChar: u1D497
Encoding: 119959 119959 750
Width: 520
Flags: W
HStem: 0 21G<97 358 97 97> 0 157<250 250 250 358 97 250> 516 20G<15 248 248 248 354 579 579 579>
VStem: 15 564<536 536>
LayerCount: 2
Fore
SplineSet
579 536 m 1xb0
 358 0 l 1
 97 0 l 1
 15 536 l 1
 248 536 l 1
 250 157 l 1x70
 354 536 l 1
 579 536 l 1xb0
EndSplineSet
EndChar
StartChar: u1D49A
Encoding: 119962 119962 753
Width: 528
Flags: W
HStem: -231 149<-25 -21> 0 21G<84 84> 516 20G<15 241 241 241 359 586 586 586>
VStem: -25 611
LayerCount: 2
Fore
SplineSet
586 536 m 1
 361 1 l 2
 294 -155 162 -229 -21 -231 c 1
 -25 -82 l 1
 75 -74 124 -54 161 1 c 1
 84 0 l 1
 15 536 l 1
 241 536 l 1
 238 134 l 1
 359 536 l 1
 586 536 l 1
EndSplineSet
EndChar
StartChar: u1D49B
Encoding: 119963 119963 754
Width: 467
Flags: W
HStem: 0 162<256 408> 377 159<55 201 33 492>
VStem: -39 531
LayerCount: 2
Fore
SplineSet
492 536 m 1
 472 383 l 1
 256 162 l 1
 448 162 l 1
 408 0 l 1
 -39 0 l 1
 -19 154 l 1
 201 377 l 1
 33 377 l 1
 55 536 l 1
 492 536 l 1
EndSplineSet
EndChar
StartChar: u1D6BD
Encoding: 120509 120509 778
Width: 875
Flags: W
HStem: 0 21G<325 549 325 325> 678 20G<325 549 549 549>
VStem: -2 233<310 380.5 310 430> 325 224<0 82 0 82 614 698> 336 201<208 208 208 488 488 488> 644 233<319.5 387.5>
LayerCount: 2
Fore
SplineSet
877 352 m 0xcc
 877 182 740 94 549 82 c 1
 549 0 l 1
 325 0 l 1
 325 82 l 1
 142 93 -2 172 -2 345 c 0
 -2 515 134 602 325 614 c 1
 325 698 l 1
 549 698 l 1
 549 614 l 1xf4
 733 604 877 526 877 352 c 0xcc
537 208 m 1
 620 220 644 287 644 352 c 0
 644 423 615 479 537 490 c 1
 537 208 l 1
231 345 m 0xec
 231 275 259 219 336 207 c 1
 336 488 l 1
 254 478 231 416 231 345 c 0xec
EndSplineSet
EndChar
StartChar: u1D6C0
Encoding: 120512 120512 781
Width: 690
Flags: W
HStem: 0 156<33 151 33 323 33 151 541 657> 558 161<310 379.5>
VStem: 12 240<347 449 330.5 483> 33 290<0 144 0 156 0 156> 367 290<0 144 144 144> 438 239<346 449>
LayerCount: 2
Fore
SplineSet
345 719 m 0xe4
 561 719 677 564 677 401 c 0xe4
 677 291 622 203 541 156 c 1
 657 156 l 1
 657 0 l 1
 367 0 l 1
 367 144 l 1xe8
 445 186 438 257 438 401 c 0
 438 497 414 558 345 558 c 0
 275 558 252 497 252 401 c 0xe4
 252 260 243 188 323 144 c 1
 323 0 l 1
 33 0 l 1
 33 156 l 1xd4
 151 156 l 1
 67 205 12 293 12 401 c 0
 12 565 127 719 345 719 c 0xe4
EndSplineSet
EndChar
StartChar: u1D6C3
Encoding: 120515 120515 783
Width: 612
Flags: W
HStem: -22 166<289.5 441.5> 326 143<281 298.5 281 299 271 298.5> 618 149<273.5 301.5>
VStem: 30 211<-200 14 -200 153 153 551 551 553> 330 216<539 573.5> 382 223<200 277>
LayerCount: 2
Fore
SplineSet
418 406 m 1xf4
 493 399 605 365 605 212 c 0xf4
 605 76 520 -22 363 -22 c 0
 315 -22 276 -8 241 14 c 1
 241 -200 l 1
 30 -230 l 1
 30 551 l 2
 30 690 146 767 292 767 c 0
 460 767 546 681 546 581 c 0xf8
 546 497 512 433 418 406 c 1xf4
303 144 m 0
 340 144 382 164 382 236 c 0
 382 318 335 326 299 326 c 2xf4
 271 326 l 1
 281 469 l 1
 316 469 330 499 330 550 c 0xf8
 330 597 316 618 287 618 c 0
 260 618 241 597 241 553 c 2
 241 153 l 1
 257 147 276 144 303 144 c 0
EndSplineSet
EndChar
StartChar: u1D6C8
Encoding: 120520 120520 788
Width: 567
Flags: W
HStem: -208 21G<320 320> 0 21G<34 256 34 34> 530 20G<222 222> 537 20G<370 444.5>
VStem: 34 222<0 353 0 406 0 425> 320 222<-208 356 356 373>
LayerCount: 2
Fore
SplineSet
401 557 m 0xdc
 488 557 542 500 542 395 c 2
 542 -230 l 1
 320 -208 l 1
 320 356 l 2
 320 390 313 397 302 397 c 0
 291 397 274 386 255 360 c 1
 256 353 l 1
 256 0 l 1
 34 0 l 1
 34 406 l 2
 34 444 29 487 16 523 c 1
 222 550 l 1xec
 231 536 237 519 243 490 c 1
 293 539 339 557 401 557 c 0xdc
EndSplineSet
EndChar
StartChar: u1D6D2
Encoding: 120530 120530 798
Width: 595
Flags: W
HStem: -208 21G<247 247> -22 156<287 431> 401 156<281 314>
VStem: 25 222<-208 37 -208 170 170 265> 356 226<215 327>
LayerCount: 2
Fore
SplineSet
300 557 m 0
 479 557 582 462 582 270 c 0
 582 100 494 -22 368 -22 c 0
 323 -22 283 -7 247 37 c 1
 247 -208 l 1
 25 -230 l 1
 25 278 l 2
 25 453 111 557 300 557 c 0
298 134 m 0
 329 134 356 164 356 266 c 0
 356 388 328 401 300 401 c 0
 262 401 247 369 247 265 c 2
 247 170 l 1
 263 142 276 134 298 134 c 0
EndSplineSet
EndChar
StartChar: u1D6D5
Encoding: 120533 120533 801
Width: 513
Flags: W
HStem: 376 160<103 514 127 514 378 514 378 378>
VStem: 156 222<194 216 216 376 194 376>
LayerCount: 2
Fore
SplineSet
514 376 m 1
 378 376 l 1
 378 216 l 2
 378 172 387 152 418 135 c 1
 356 -22 l 1
 234 -7 156 54 156 187 c 2
 156 376 l 1
 127 376 l 2
 79 376 65 374 38 365 c 1
 -1 505 l 1
 37 524 81 536 173 536 c 2
 514 536 l 1
 514 376 l 1
EndSplineSet
EndChar
StartChar: u1D6D8
Encoding: 120536 120536 804
Width: 520
Flags: W
HStem: -209 21G<-32 -32> 530 20G<299 299> 531 20G<180 180>
VStem: -38 590
LayerCount: 2
Fore
SplineSet
371 185 m 1xb0
 552 -193 l 1
 332 -231 l 1
 257 13 l 1
 197 -231 l 1
 -32 -209 l 1
 147 178 l 1
 76 325 30 420 -38 490 c 1
 180 551 l 1xb0
 217 480 227 456 261 320 c 1
 299 550 l 1
 526 528 l 1xd0
 371 185 l 1xb0
EndSplineSet
EndChar
StartChar: u1D6DD
Encoding: 120541 120541 809
Width: 559
Flags: W
HStem: -22 153<248 255 248 350.5> 399 138<157.5 292 244 292 244 299> 615 152<229 253>
VStem: 15 188<565.5 588 565.5 621.5> 23 210<197 356 155.5 356> 299 219<398 400 399 400>
LayerCount: 2
Fore
SplineSet
550 400 m 1xec
 518 400 l 1
 517 113 457 -22 244 -22 c 0
 115 -22 23 37 23 197 c 2
 23 356 l 1
 233 356 l 1
 233 171 l 2xec
 233 140 241 131 255 131 c 0
 290 130 299 181 299 398 c 2
 299 399 l 1
 235 399 l 2
 80 399 15 464 15 570 c 0xf4
 15 673 103 767 242 767 c 0
 390 767 476 688 506 537 c 1
 550 537 l 1
 550 400 l 1xec
244 537 m 2xf4
 292 537 l 1
 283 604 264 615 242 615 c 0
 216 615 203 600 203 576 c 0
 203 555 213 538 244 537 c 2xf4
EndSplineSet
EndChar
StartChar: u1D6DE
Encoding: 120542 120542 810
Width: 541
Flags: W
HStem: -14 21G<177 177> 528 20G<364 364> 536 20G<55 55>
VStem: 34 197<32 441 319 441> 311 197<93.5 216>
LayerCount: 2
Fore
SplineSet
508 216 m 2xb8
 508 176 512 154 547 137 c 1
 486 -22 l 1
 387 -4 311 43 311 144 c 0
 311 216 357 305 394 387 c 1
 177 -14 l 1
 34 32 l 1
 34 319 l 2
 34 358 29 380 -6 398 c 1
 55 556 l 1xb8
 154 539 231 492 231 390 c 0
 231 318 185 230 147 147 c 1
 364 548 l 1
 508 503 l 1xd8
 508 216 l 2xb8
EndSplineSet
EndChar
StartChar: u1D712
Encoding: 120594 120594 861
Width: 479
Flags: W
HStem: -221 21G<71 71 273 273> 523 20G<160 160> 524 20G<348 348>
VStem: -88 598
LayerCount: 2
Fore
SplineSet
510 528 m 1xb0
 307 182 l 1
 427 -196 l 1
 273 -221 l 1
 211 66 l 1
 71 -221 l 1
 -88 -204 l 1
 145 183 l 1
 92 354 62 429 7 499 c 1
 160 543 l 1xd0
 195 478 210 433 240 295 c 1
 348 544 l 1
 510 528 l 1xb0
EndSplineSet
EndChar
StartChar: u1D71F
Encoding: 120607 120607 874
Width: 602
Flags: W
HStem: 0 161<226 348 226 597> 535 163<339 339> 678 20G<226 496 496 496>
VStem: -69 666<0 0>
LayerCount: 2
Fore
SplineSet
496 698 m 1xb0
 597 0 l 1
 -69 0 l 1
 226 698 l 1
 496 698 l 1xb0
339 535 m 1xd0
 226 161 l 1
 348 161 l 1
 339 535 l 1xd0
EndSplineSet
EndChar
StartChar: u1D726
Encoding: 120614 120614 881
Width: 594
Flags: W
HStem: 0 21G<-69 174 -69 -69 355 589 355 355> 539 159<338 338> 678 20G<223 493 493 493>
VStem: -69 658<0 0>
LayerCount: 2
Fore
SplineSet
493 698 m 1xb0
 589 0 l 1
 355 0 l 1
 338 539 l 1xd0
 174 0 l 1
 -69 0 l 1
 223 698 l 1
 493 698 l 1xb0
EndSplineSet
EndChar
StartChar: u1D727
Encoding: 120615 120615 882
Width: 777
Flags: W
HStem: 0 21G<-31 192 -31 -31 515 738 515 515> 543 155<600 600> 678 20G<113 385 385 385 504 788 788 788>
VStem: 243 141
LayerCount: 2
Fore
SplineSet
788 698 m 1xb0
 738 0 l 1
 515 0 l 1
 546 233 l 2
 556 319 572 405 600 543 c 1
 470 68 l 1
 252 68 l 1
 243 541 l 2xd0
 243 393 240 327 226 235 c 2
 192 0 l 1
 -31 0 l 1
 113 698 l 1
 385 698 l 1
 383 234 l 1
 504 698 l 1
 788 698 l 1xb0
EndSplineSet
EndChar
StartChar: u1D732
Encoding: 120626 120626 893
Width: 608
Flags: W
HStem: 0 21G<-50 191 -50 -50 342 584 342 342> 678 20G<58 299 299 299 429 669 669 669>
VStem: -50 719<0 698>
LayerCount: 2
Fore
SplineSet
451 376 m 1
 450 375 l 1
 584 0 l 1
 342 0 l 1
 294 236 l 1
 191 0 l 1
 -50 0 l 1
 178 369 l 1
 178 370 l 1
 58 698 l 1
 299 698 l 1
 332 499 l 1
 429 698 l 1
 669 698 l 1
 451 376 l 1
EndSplineSet
EndChar
StartChar: u1D739
Encoding: 120633 120633 899
Width: 565
Flags: W
HStem: -22 158<249 295 249 363> 620 147<343.5 381.5>
VStem: 1 221<174.5 224 174.5 246.5> 105 203<578.5 597 578.5 638> 339 220<283.5 336>
LayerCount: 2
Fore
SplineSet
345 767 m 0xe8
 457 767 529 727 565 682 c 1
 458 577 l 1
 430 604 399 620 364 620 c 0
 323 620 308 606 308 588 c 0xd8
 308 569 318 559 378 534 c 0
 501 482 559 421 559 307 c 0
 559 173 482 -22 244 -22 c 0
 89 -22 1 81 1 193 c 0xe8
 1 300 39 406 186 457 c 1
 121 502 105 549 105 596 c 0xd8
 105 680 183 767 345 767 c 0xe8
284 402 m 1
 223 337 222 253 222 195 c 0
 222 154 236 136 262 136 c 0
 328 136 339 250 339 317 c 0
 339 355 327 374 284 402 c 1
EndSplineSet
EndChar
StartChar: u1D73A
Encoding: 120634 120634 900
Width: 490
Flags: W
HStem: -22 150<254 271.5> 206 131<253 371 299 333> 412 145<298.5 324.5 215.5 330.5>
VStem: -9 221<154.5 178.5 154.5 187.5>
LayerCount: 2
Fore
SplineSet
225 -22 m 0
 92 -22 -9 29 -9 143 c 0
 -9 232 60 280 160 284 c 1
 86 300 46 340 46 399 c 0
 46 507 146 557 285 557 c 0
 364 557 447 538 505 478 c 1
 411 379 l 1
 379 401 348 412 313 412 c 0
 284 412 260 398 260 369 c 0
 260 354 270 337 299 337 c 2
 371 337 l 1
 333 206 l 1
 274 206 l 2
 232 206 212 192 212 165 c 0
 212 144 231 128 277 128 c 0
 310 128 344 140 394 167 c 1
 459 49 l 1
 406 3 318 -22 225 -22 c 0
EndSplineSet
EndChar
StartChar: u1D73B
Encoding: 120635 120635 901
Width: 436
Flags: W
HStem: 593 152<114 200 70 493> 638 107<114 508>
VStem: -4 225<229.5 271.5> -4 512<165.5 638>
LayerCount: 2
Fore
SplineSet
493 745 m 1x90
 508 638 l 1
 252 441 221 304 221 254 c 0
 221 205 244 175 310 142 c 0
 375 111 413 79 413 3 c 0
 413 -102 333 -169 181 -231 c 1
 119 -103 l 1
 163 -76 189 -59 189 -33 c 0
 189 -12 175 -2 135 20 c 0
 33 74 -4 115 -4 216 c 0x60
 -4 327 65 456 321 614 c 1
 290 603 245 593 200 593 c 2
 70 593 l 1
 114 745 l 1
 493 745 l 1x90
EndSplineSet
EndChar
StartChar: u1D740
Encoding: 120640 120640 906
Width: 552
Flags: W
HStem: -21 21G<320 320> 527 20G<188 188>
VStem: -38 580<31 43>
LayerCount: 2
Fore
SplineSet
144 767 m 1
 331 744 429 697 448 486 c 0
 469 262 488 149 542 43 c 1
 320 -21 l 1
 277 87 266 140 270 328 c 1
 176 -22 l 1
 -38 31 l 1
 188 547 l 1
 248 530 l 1
 227 596 200 607 102 620 c 1
 144 767 l 1
EndSplineSet
EndChar
StartChar: u1D741
Encoding: 120641 120641 907
Width: 565
Flags: W
HStem: -228 21G<-40 -40> -21 21G<310 310> -5 21G<202.5 233> -1 21G<512 512> 516 20G<66 283 283 283 346 563 563 563>
VStem: 300 206.25
LayerCount: 2
Fore
SplineSet
514 184 m 2x9c
 503 102 505 40 512 -1 c 1x9c
 310 -21 l 1xcc
 302 0 301 17 300 52 c 1
 272 5 250 -5 216 -5 c 0
 189 -5 177 1 170 6 c 1xac
 177 -28 186 -53 175 -130 c 2
 163 -208 l 1
 -40 -228 l 1
 66 536 l 1
 283 536 l 1
 233 169 l 2
 229 142 238 137 248 137 c 0
 260 137 279 149 295 171 c 1
 346 536 l 1
 563 536 l 1
 514 184 l 2x9c
EndSplineSet
EndChar
StartChar: u1D743
Encoding: 120643 120643 909
Width: 449
Flags: W
HStem: -229 21G<211 211> 364 135<311 409 365 372> 618 149<348.5 377.5 249 378>
VStem: 2 226<229.5 279.5> 2 537<173.5 691> 89 215<544 574 533 616>
LayerCount: 2
Fore
SplineSet
336 767 m 0xe8
 419 767 491 740 539 691 c 1
 436 590 l 1
 412 606 394 618 362 618 c 0
 335 618 304 597 304 551 c 0
 304 515 324 499 365 499 c 2xe4
 409 499 l 1
 372 364 l 1
 340 364 l 2
 282 364 228 329 228 254 c 0
 228 205 261 180 344 140 c 0
 405 111 443 79 443 3 c 0
 443 -102 364 -168 211 -229 c 1
 149 -102 l 1
 193 -75 219 -59 219 -33 c 0
 219 -12 205 -2 167 19 c 0
 73 66 2 118 2 229 c 0xf0
 2 330 47 408 199 446 c 1
 127 465 89 511 89 577 c 0xe4
 89 655 162 767 336 767 c 0xe8
EndSplineSet
EndChar
StartChar: u1D748
Encoding: 120648 120648 914
Width: 604
Flags: W
HStem: -22 158<251.5 304 251.5 371> 397 149<330 351 330 330> 516 20G<648 648>
VStem: 4 220<176 270 176 285> 349 217<224.5 370>
LayerCount: 2
Fore
SplineSet
343 546 m 0xd8
 451 546 537 541 648 536 c 1xb8
 626 378 l 1
 537 390 l 1
 557 365 566 336 566 285 c 0
 566 164 487 -22 255 -22 c 0
 103 -22 4 57 4 212 c 0
 4 358 73 546 343 546 c 0xd8
351 397 m 1
 330 397 l 2
 260 398 224 340 224 200 c 0
 224 152 237 136 266 136 c 0
 342 136 349 292 349 363 c 0
 349 377 350 388 351 397 c 1
EndSplineSet
EndChar
StartChar: u1D7CF
Encoding: 120783 120783 929
Width: 493
Flags: W
HStem: 0 21G<224 438 224 224>
VStem: 224 214<0 474 474 474>
LayerCount: 2
Fore
SplineSet
438 682 m 1
 438 0 l 1
 224 0 l 1
 224 474 l 1
 88 391 l 1
 -8 535 l 1
 241 682 l 1
 438 682 l 1
EndSplineSet
EndChar
StartChar: u1D7D4
Encoding: 120788 120788 934
Width: 593
Flags: W
HStem: -22 153<288 329.5 288 399.5> 325 144<302.5 443> 550 150<336 380.5>
VStem: 21 233<240.5 308 240.5 423.5> 362 222<202.5 268.5>
LayerCount: 2
Fore
SplineSet
382 469 m 0
 504 469 584 379 584 234 c 0
 584 106 491 -22 308 -22 c 0
 112 -22 21 107 21 304 c 0
 21 543 149 700 356 700 c 0
 428 700 487 679 524 653 c 1
 446 525 l 1
 421 540 398 550 363 550 c 0
 309 550 269 516 255 431 c 1
 296 457 340 469 382 469 c 0
311 131 m 0
 348 131 362 171 362 234 c 0
 362 303 350 325 309 325 c 0
 296 325 277 321 254 308 c 1
 254 173 265 131 311 131 c 0
EndSplineSet
EndChar
